<?xml version="1.0" encoding="UTF-8"?><svg id="Layer_1" xmlns="http://www.w3.org/2000/svg" viewBox="0 0 649.5 842">
    <link
    xmlns="http://www.w3.org/1999/xhtml"
    rel="stylesheet"
    href="style.css"
    type="text/css" />
<defs><style>.cls-1{fill:none;}.cls-1,.cls-2,.cls-3,.cls-4,.cls-5,.cls-6,.cls-7,.cls-8,.cls-9,.cls-10,.cls-11,.cls-12,.cls-13,.cls-14,.cls-15,.cls-16,.cls-17,.cls-18,.cls-19,.cls-20,.cls-21,.cls-22,.cls-23,.cls-24,.cls-25,.cls-26,.cls-27,.cls-28,.cls-29,.cls-30,.cls-31,.cls-32,.cls-33,.cls-34,.cls-35,.cls-36,.cls-37,.cls-38,.cls-39,.cls-40,.cls-41,.cls-42,.cls-43,.cls-44,.cls-45,.cls-46,.cls-47,.cls-48,.cls-49,.cls-50,.cls-51,.cls-52,.cls-53,.cls-54,.cls-55,.cls-56,.cls-57,.cls-58,.cls-59,.cls-60,.cls-61,.cls-62,.cls-63,.cls-64,.cls-65,.cls-66,.cls-67,.cls-68,.cls-69,.cls-70,.cls-71,.cls-72,.cls-73,.cls-74,.cls-75,.cls-76,.cls-77,.cls-78,.cls-79,.cls-80,.cls-81,.cls-82,.cls-83,.cls-84,.cls-85,.cls-86,.cls-87,.cls-88,.cls-89,.cls-90,.cls-91,.cls-92,.cls-93,.cls-94,.cls-95,.cls-96,.cls-97,.cls-98,.cls-99,.cls-100,.cls-101,.cls-102,.cls-103,.cls-104,.cls-105,.cls-106,.cls-107,.cls-108,.cls-109,.cls-110,.cls-111,.cls-112,.cls-113,.cls-114,.cls-115,.cls-116,.cls-117,.cls-118,.cls-119,.cls-120,.cls-121,.cls-122,.cls-123,.cls-124,.cls-125,.cls-126,.cls-127,.cls-128,.cls-129,.cls-130,.cls-131,.cls-132,.cls-133,.cls-134,.cls-135,.cls-136,.cls-137,.cls-138,.cls-139,.cls-140,.cls-141,.cls-142,.cls-143,.cls-144,.cls-145,.cls-146,.cls-147,.cls-148,.cls-149,.cls-150,.cls-151,.cls-152,.cls-153,.cls-154,.cls-155,.cls-156,.cls-157,.cls-158,.cls-159,.cls-160,.cls-161,.cls-162,.cls-163,.cls-164,.cls-165,.cls-166,.cls-167,.cls-168,.cls-169,.cls-170,.cls-171,.cls-172,.cls-173,.cls-174,.cls-175,.cls-176,.cls-177,.cls-178,.cls-179,.cls-180,.cls-181,.cls-182,.cls-183,.cls-184,.cls-185,.cls-186,.cls-187,.cls-188,.cls-189,.cls-190,.cls-191,.cls-192,.cls-193,.cls-194,.cls-195,.cls-196,.cls-197,.cls-198,.cls-199,.cls-200,.cls-201,.cls-202,.cls-203,.cls-204,.cls-205,.cls-206,.cls-207,.cls-208,.cls-209,.cls-210,.cls-211,.cls-212,.cls-213,.cls-214,.cls-215,.cls-216,.cls-217,.cls-218,.cls-219,.cls-220,.cls-221,.cls-222,.cls-223,.cls-224,.cls-225,.cls-226,.cls-227,.cls-228,.cls-229,.cls-230,.cls-231,.cls-232,.cls-233,.cls-234,.cls-235,.cls-236,.cls-237,.cls-238,.cls-239,.cls-240,.cls-241,.cls-242,.cls-243,.cls-244,.cls-245,.cls-246,.cls-247,.cls-248,.cls-249,.cls-250,.cls-251,.cls-252,.cls-253,.cls-254,.cls-255,.cls-256,.cls-257,.cls-258,.cls-259,.cls-260,.cls-261,.cls-262,.cls-263,.cls-264,.cls-265,.cls-266,.cls-267,.cls-268,.cls-269,.cls-270,.cls-271,.cls-272,.cls-273,.cls-274,.cls-275,.cls-276,.cls-277,.cls-278,.cls-279,.cls-280,.cls-281,.cls-282,.cls-283,.cls-284,.cls-285,.cls-286,.cls-287,.cls-288,.cls-289,.cls-290,.cls-291,.cls-292,.cls-293,.cls-294{stroke-width:0px;}.cls-295{font-family:Lora;font-size:36px;}.cls-296{font-family:'Lora';font-size:66px;font-weight:700;}.cls-2{fill:#f7df80;}.cls-3{fill:#f7e681;}.cls-4{fill:#f7e581;}.cls-5{fill:#f7e14d;}.cls-6{fill:#f7e9ae;}.cls-7{fill:#f7ec52;}.cls-8{fill:#f7db57;}.cls-9{fill:#f7e47f;}.cls-10{fill:#f2efcc;}.cls-11{fill:#f6f6f6;}.cls-12{fill:#f8e87e;}.cls-13{fill:#f9f29a;}.cls-14{fill:#f7ce55;}.cls-15{fill:#f9f7aa;}.cls-16{fill:#f9f8b7;}.cls-17{fill:#f8f7c8;}.cls-18{fill:#f8f865;}.cls-19{fill:#f8e3b3;}.cls-20{fill:#f8f797;}.cls-21{fill:#f8f352;}.cls-22{fill:#f8e851;}.cls-23{fill:#f8e14d;}.cls-24{fill:#4c2b2b;}.cls-25{fill:#615442;}.cls-26{fill:#494354;}.cls-27{fill:#5d6775;}.cls-28{fill:#4d3626;}.cls-29{fill:#49425e;}.cls-30{fill:#605871;}.cls-31{fill:#5f5869;}.cls-32{fill:#5f5a6a;}.cls-33{fill:#777a93;}.cls-34{fill:#776242;}.cls-35{fill:#756978;}.cls-36{fill:#763e30;}.cls-37{fill:#5e5d5c;}.cls-38{fill:#5e5a70;}.cls-39{fill:#5d5979;}.cls-40{fill:#526279;}.cls-41{fill:#78797c;}.cls-42{fill:#787778;}.cls-43{fill:#72617b;}.cls-44{fill:#726e7f;}.cls-45{fill:#725f48;}.cls-46{fill:#7c6445;}.cls-47{fill:#513223;}.cls-48{fill:#7c6a47;}.cls-49{fill:#7c6039;}.cls-50{fill:#785a37;}.cls-51{fill:#312f45;}.cls-52{fill:#281f1d;}.cls-53{fill:#7b727e;}.cls-54{fill:#4e4963;}.cls-55{fill:#7b593e;}.cls-56{fill:#7b7778;}.cls-57{fill:#4e5162;}.cls-58{fill:#5c6179;}.cls-59{fill:#352d3c;}.cls-60{fill:#2d1f16;}.cls-61{fill:#483020;}.cls-62{fill:#473f46;}.cls-63{fill:#48465e;}.cls-64{fill:#4a4d68;}.cls-65{fill:#2a273a;}.cls-66{fill:#63615d;}.cls-67{fill:#563a23;}.cls-68{fill:#2b1811;}.cls-69{fill:#2a3652;}.cls-70{fill:#2b2627;}.cls-71{fill:#2b231f;}.cls-72{fill:#595466;}.cls-73{fill:#2b2c41;}.cls-74{fill:#594d67;}.cls-75{fill:#5b576e;}.cls-76{fill:#5b451e;}.cls-77{fill:#5c5757;}.cls-78{fill:#635d64;}.cls-79{fill:#636280;}.cls-80{fill:#636363;}.cls-81{fill:#554533;}.cls-82{fill:#809bd0;}.cls-83{fill:#888787;}.cls-84{fill:#867f5b;}.cls-85{fill:#88818f;}.cls-86{fill:#888586;}.cls-87{fill:#9b9999;}.cls-88{fill:#9b9899;}.cls-89{fill:#9a8970;}.cls-90{fill:#88804e;}.cls-91{fill:#6d6371;}.cls-92{fill:#896e3d;}.cls-93{fill:#54526b;}.cls-94{fill:#46485c;}.cls-95{fill:#969394;}.cls-96{fill:#969092;}.cls-97{fill:#8a6947;}.cls-98{fill:#8a642c;}.cls-99{fill:#6f564a;}.cls-100{fill:#726041;}.cls-101{fill:#726a83;}.cls-102{fill:#726b60;}.cls-103{fill:#a2915c;}.cls-104{fill:#6f6a6a;}.cls-105{fill:#a27f51;}.cls-106{fill:#a28067;}.cls-107{fill:#a29fc5;}.cls-108{fill:#a2a0a1;}.cls-109{fill:#958e8c;}.cls-110{fill:#716774;}.cls-111{fill:#9b9159;}.cls-112{fill:#807e7d;}.cls-113{fill:#706252;}.cls-114{fill:#a3a0a1;}.cls-115{fill:#949293;}.cls-116{fill:#947761;}.cls-117{fill:#947c68;}.cls-118{fill:#a38a63;}.cls-119{fill:#2e1312;}.cls-120{fill:#382d48;}.cls-121{fill:#353143;}.cls-122{fill:#3a4052;}.cls-123{fill:#3a313f;}.cls-124{fill:#3a354e;}.cls-125{fill:#3d312c;}.cls-126{fill:#5a516a;}.cls-127{fill:#596c85;}.cls-128{fill:#5a472a;}.cls-129{fill:#838185;}.cls-130{fill:#3d221c;}.cls-131{fill:#2f2836;}.cls-132{fill:#84614c;}.cls-133{fill:#84705c;}.cls-134{fill:#3c3849;}.cls-135{fill:#19161b;}.cls-136{fill:#3f4156;}.cls-137{fill:#45332c;}.cls-138{fill:#444358;}.cls-139{fill:#444a67;}.cls-140{fill:#1c1a27;}.cls-141{fill:#402b1d;}.cls-142{fill:#434051;}.cls-143{fill:#070000;}.cls-144{fill:#221b16;}.cls-145{fill:#a8aaa7;}.cls-146{fill:#1f1529;}.cls-147{fill:#c3c1be;}.cls-148{fill:#d1bf9f;}.cls-149{fill:#dedcdd;}.cls-150{fill:#c6bf7b;}.cls-151{fill:#afaecf;}.cls-152{fill:#adadad;}.cls-153{fill:#adacab;}.cls-154{fill:#adacad;}.cls-155{fill:#c7aa5f;}.cls-156{fill:#ad8343;}.cls-157{fill:#e2ddde;}.cls-158{fill:#b0acad;}.cls-159{fill:#dadbdb;}.cls-160{fill:#dfd0a5;}.cls-161{fill:#aba6a7;}.cls-162{fill:#ab9886;}.cls-163{fill:#bddbf4;}.cls-164{fill:#c0b5a8;}.cls-165{fill:#ababab;}.cls-166{fill:#ab9f96;}.cls-167{fill:#aa924e;}.cls-168{fill:#bdbdbd;}.cls-169{fill:#aaa7d3;}.cls-170{fill:#a48e6e;}.cls-171{fill:#b2b1b1;}.cls-172{fill:#b1aeaf;}.cls-173{fill:#a57e57;}.cls-174{fill:#afacac;}.cls-175{fill:#afacad;}.cls-176{fill:#afa2c9;}.cls-177{fill:#a4803b;}.cls-178{fill:#ae9a4f;}.cls-179{fill:#b0b0b0;}.cls-180{fill:#ae966d;}.cls-181{fill:#b38c57;}.cls-182{fill:#aea9ab;}.cls-183{fill:#b08a41;}.cls-184{fill:#aa9789;}.cls-185{fill:#ab8334;}.cls-186{fill:#aaabd8;}.cls-187{fill:#b2afaf;}.cls-188{fill:#a7a0a2;}.cls-189{fill:#a9a8a8;}.cls-190{fill:#acacac;}.cls-191{fill:#a6a4a5;}.cls-192{fill:#a6a5a3;}.cls-193{fill:#a87d4f;}.cls-194{fill:#ab9663;}.cls-195{fill:#a59c9e;}.cls-196{fill:#cecece;}.cls-197{fill:#858585;}.cls-198{fill:#939292;}.cls-199{fill:#b8995c;}.cls-200{fill:#c1bdbe;}.cls-201{fill:#b4b4b4;}.cls-202{fill:#c1ae99;}.cls-203{fill:#b5997c;}.cls-204{fill:#323656;}.cls-205{fill:#b8b6b7;}.cls-206{fill:#8a8591;}.cls-207{fill:#b6aa6d;}.cls-208{fill:#b5b2b3;}.cls-209{fill:#b5b4b4;}.cls-210{fill:#b8b6dd;}.cls-211{fill:#9c9799;}.cls-212{fill:#9e9d9d;}.cls-213{fill:#8b8989;}.cls-214{fill:#9c9998;}.cls-215{fill:#b9b8b7;}.cls-216{fill:#b9b3e3;}.cls-217{fill:#b9b296;}.cls-218{fill:#9c7f47;}.cls-219{fill:#a19d9d;}.cls-220{fill:#a19e9f;}.cls-221{fill:#a1864d;}.cls-222{fill:#a19cc9;}.cls-223{fill:#937c4a;}.cls-224{fill:#918e8f;}.cls-225{fill:#c2bfbf;}.cls-226{fill:#8f96bc;}.cls-227{fill:#8f8b8d;}.cls-228{fill:#908c8c;}.cls-229{fill:#908d8c;}.cls-230{fill:#b3b3b3;}.cls-231{fill:#b3b2d6;}.cls-232{fill:#b49f55;}.cls-233{fill:#b6b3b4;}.cls-234{fill:#b79765;}.cls-235{fill:#b4976d;}.cls-236{fill:#737373;}.cls-237{fill:#743a22;}.cls-238{fill:#baad96;}.cls-239{fill:#baad3b;}.cls-240{fill:#342921;}.cls-241{fill:#312637;}.cls-242{fill:#302e41;}.cls-243{fill:#332c22;}.cls-244{fill:#8d8d8d;}.cls-245{fill:#8e808f;}.cls-246{fill:#8c87b9;}.cls-247{fill:#6c6984;}.cls-248{fill:#979596;}.cls-249{fill:#979595;}.cls-250{fill:#979293;}.cls-251{fill:#979796;}.cls-252{fill:#7d5934;}.cls-253{fill:#7d7241;}.cls-254{fill:#7d6e34;}.cls-255{fill:#8b7447;}.cls-256{fill:#9c9c9c;}.cls-257{fill:#9c9a9b;}.cls-258{fill:#9c9b9b;}.cls-259{fill:#9f9a97;}.cls-260{fill:#9f9e9e;}.cls-261{fill:#847f9e;}.cls-262{fill:#858080;}.cls-263{fill:#6b6869;}.cls-264{fill:#7e8080;}.cls-265{fill:#7f807e;}.cls-266{fill:#815e40;}.cls-267{fill:#747474;}.cls-268{fill:#686678;}.cls-269{fill:#989697;}.cls-270{fill:#988460;}.cls-271{fill:#65657e;}.cls-272{fill:#655971;}.cls-273{fill:#f1e58e;}.cls-274{fill:#f2c356;}.cls-275{fill:#f3c04d;}.cls-276{fill:#fff;}.cls-277{fill:#edeced;}.cls-278{fill:#edecb8;}.cls-279{fill:#f5d5a9;}.cls-280{fill:#efeef2;}.cls-281{fill:#eff7fa;}.cls-282{fill:#faf754;}.cls-283{fill:#faf9c0;}.cls-284{fill:#fefefe;}.cls-285{fill:#ecc15f;}.cls-286{fill:#f6b64c;}.cls-287{fill:#f6d050;}.cls-288{fill:#f6d643;}.cls-289{fill:#e8cda5;}.cls-290{fill:#e7ebf0;}.cls-291{fill:#f6bc5b;}.cls-292{fill:#f4e352;}.cls-293{fill:#6a6775;}.cls-294{fill:#695338;}</style></defs><path class="cls-12" d="m354.6,692h-5.1c-5.2-4.9-8.7-11.3-13.8-16.4-2.9-2.9-4.4-3.7-7.5-1.1-3.6,2.9-8.1,4.8-12,5.6-8.4,1.8-17.1,6.2-25.9.9-.6-.4-1.3-.7-2-.5-5.7,1.2-9.2-2.2-12.6-6-1.2-1.3-2.4-2.3-4.1-2.8-1.8-.6-3.3-1.6-3.6-3.7-.1-1.4.7-2.5,1.3-3.7.3-.4.6-.9.8-1.4.4-.6.9-1.1,1.2-1.7.3-.5.5-1,.9-1.4.5-.5,1-1.3,2-.8,3,6.2,8.6,7.6,14.7,3.7,3.6-2.3,6.2-5.7,9-8.8,2.8-3,5.8-4.4,9.7-2.5,1.9.9,3.5.4,5-1,1.6-1.4,3-2.9,4.7-4.2,4.1-3.2,7.7-1.9,8.5,3.2.2,1,.2,2,.2,2.9,0,2.1-.2,4.3,3,2.3,1.4-.9,2.8-.3,3.7,1,1.8,2.5,4,4.7,5.3,7.6,2.4,5.4,5.9,10.2,8.6,15.4,2.5,3.7,4.1,8,7.4,11.1.6.6,1,1.3.6,2.3Z"/><path class="cls-13" d="m268.6,667.5c.8,1.2,1.1,3.1,2.9,3.2,2.7.1,4.1,1.8,5.5,3.9,1.9,2.8,5,3.9,7.9,5.4.1,0,.3.1.4,0,4.8-2.1,8.4,2,12.7,2.2,2.8.2,5.6.5,8.4-.8,2.6-1.3,5.2-3,8.3-1.5.5.3,1.2.1,1.5-.4,1.4-2.4,3.6-2.8,6.1-3,1.2-.1,2.4-.8,3.3-1.8,1.3-1.4,3-2.1,4.7-2.8,1.6-.7,3.4-.8,4.6.8,4.7,5.8,9.4,11.7,14.1,17.6.3.4.3,1.1.5,1.6h-5.9c-2.3-3.4-5.6-5.8-8.9-8.1-3.9-2.7-7.6-1.1-8.6,3.7-.3,1.5.1,3.1-1.1,4.3h-46.5c-2.7-3.9-5.4-7.6-10-9.7-2.4-1-2.1-4.1-3.1-6.1-.2-1.4.5-2.6.6-3.9.2-.5.5-1,.6-1.5,0-.5.2-1,.4-1.5.2-.4.4-.9.7-1.3.2-.3.5-.4.8-.5Z"/><path class="cls-14" d="m354.6,692c-3.6-3.7-6.3-8-8.5-12.7-1.3-2.1-1-4.6-1.2-6.9-.5-5.4-2.1-10.7-2.9-16.1-.3-2.1-1.4-3.3-3.6-3.4-2.9,0-5.5-.8-5.4-4.3.1-4.1,2.4-6.7,5.8-7,1,0,1.9-.6,2.8-.7,12.6,4.7,20.9,13.8,26.2,25.9.2.6.5,1.1.7,1.7.2.6.2,1.2,0,1.8-6.9.5-8.4-.3-11.5-6.2-.4-.8-.7-1.6-1.7-1.5-.9.1-1.4.9-1.8,1.7-3.1,6.5-.8,18.1,4.4,23,1.3,1.2,2.5.9,3.9.5,2.4-.8,4.8-1.6,7.4-.9.4,0,.8,0,1.1-.2,1.1.2,2.4-2.3,3.4.2.3,1.7.7,3.5-.5,5h-18.6Z"/><path class="cls-16" d="m325,692c0-1.3,0-2.5,0-3.8,0-1.8-.5-3.8,2.2-4.2.3,0,.6-.5.9-.9,2.4-3.4,2.4-3.4,5.7-1.2,2.3,1.6,4.6,3.1,6.8,4.9,1.5,1.3,3.5,2.5,3.1,5.1h-18.6Z"/><path class="cls-283" d="m266,676c1.6,3.2,3,6.2,6.9,7.8,2.9,1.2,5.4,4.3,5.6,8.2h-12.7c-1-2.5-1.3-5-1.6-7.6,1.5-2.1.5-4.5.9-6.8,0-.7.3-1.3.9-1.6Z"/><path class="cls-243" d="m368.2,669.9c-.1-.5-.3-1.1-.4-1.6-.1-.3-.3-.6-.5-.9-1.1-4.5-3.6-8.3-6.5-11.7-5.2-6.1-11.1-11.6-18.9-14.3-.3.2-.5.2-.8.1-.4-.2-.8-.3-1.2-.5-.3-.1-.6-.2-.8-.4-.4-.2-.8-.5-1.2-.8-.2-.3-.3-.6-.3-.9.3-.5.6-.7,1.2-.4,8.1,2.9,14.9,7.5,21,13.6,4.8,4.8,7.2,11,9.9,17,3.3,7.2,5.2,14.8,5.3,22.8h-1.7c0-2-.2-3.9-.3-5.9-2.6-5.1-3.7-10.7-4.7-16.3Z"/><path class="cls-8" d="m339.4,640.4c.3,0,.6.2.9.2.3.2.6.4,1,.6.3,0,.5,0,.7.2-1.2,1-2.4,2-4.1,1.1-.7-.3-1.8-.4-1.8.2,0,2.5-1.9,4.4-2.1,6.6-.1,1.5,1.5,2.8,3.6,2.6,4.4-.4,5.3.5,5.5,5.2,0,1.1.3,2.2.7,3.3,2.1,6.2,2.6,12.5,2.5,18.9-2.1-3.4-4.5-6.6-6.3-10.2-2.3-4.5-4.9-8.8-7.8-12.9-1.1-1.6-2-1.6-3.4-.5-1,.8-1.7,2.9-3.2,1.9-1.1-.7-.4-2.6-.5-4-.1-1.7,0-3.4-.3-5-.7-3.3-3.5-4.2-6.2-2.1-1.8,1.5-3.8,3-5.2,4.9-1.9,2.6-4.2,2.3-6.3,1-2.7-1.7-5.2-1.1-6.8.8-1.7,2-3.7,3.7-5.4,5.7-3.9,4.8-8.7,7.8-15.3,6.9-4.1-.5-4.9-1.2-5.3-5.3,0-.6-.2-1.1-.7-1.4-.8-1.7,1.3-2.2,1.6-3.5h0c.7-.7.9-1.8,1.7-2.5h0c.3-.2.6-.5.8-.9,1-2.1,2.5-3.7,4.4-5.1.3-.3.5-.6.8-.8h0c1.3-.7,2.4-1.8,3.4-2.9,3.3-.8,5.4-3,6.8-6,0-.3.1-.4.4-.4,1.9-.9,3.7-.9,5.7-.3,2.3.7,4.7,1.1,7.1.4.3,0,.5-.1.8-.1.6,0,1.2,0,1.8-.1-.4,0-.8,0-1.3,0-.9,0-1.6.2-2.5.4-1.3-.1-2.6.4-3.8-.5,0-1.3,1.1-1.6,2-1.8,4.2-1.1,8.4-2.1,12.7-2.3,3.2.2,6.4-.2,9.3,1.6h1.7c.2-.2.5-.2.7,0h0c2.6,1.3,5.4,2.1,8.1,3.3.5.2.9.6,1.3.9.3.2.5.5.8.7l.9.5c.3,0,.6.2.8.5Z"/><path class="cls-4" d="m278.5,626.1c0,1.5-1.1,2.7-1.7,4-1.1,2-2.1,4.3-5.1,3.5h0c-.6-.6-1.2-1.2-1.8-1.8-.2-.2-.5-.5-.8-.7h0c-2.8-3.6-6-7-9.9-9.6-7.6-5-7.4-12.9-7.4-20.7,0-.4,0-.8.1-1.2-.4.4-.1.9-.1,1.3,0,3.5.3,7,.7,10.5.5,4.6,2.7,7.4,6.2,9.7.3,1,2.1.7,1.8,2.2-.4.3-.9.6-1.3.9-2.2.6-2.4,3.5-4.7,4-1.8.8-2.9,3.9-5.6,1.8,0-.2,0-.4,0-.6,0-7.3-3.3-13.7-5.6-20.4-.6-1.9-1.5-3.6-1.1-5.7,2.3-7.3,6-13.6,12.1-18.4,1-.5,2-.2,3,.1.6.2,1.2.4,1.7.6.4.2.7.4,1,.6,4.9,4.2,5.2,6.9,2.6,13.2-1.4,3.5-1.2,7.5-1.7,11.2,0,.6.3,1.1.3,1.6.5,4.2,2.8,5.3,7,5.2,5.7,0,9.7,3.8,10,8.4Z"/><path class="cls-147" d="m200.8,480.5c0-.3,0-.5,0-.8-1.1-1.9-2.5-3.5-4.7-4.3-.6,0-1-.3-1.3-.8,0-.9-1.1-1.4-.8-2.4-.4-1.2-1.4-1.8-2.1-2.7.7-1.1-1.9-2.7.5-3.6,1.9,1.8,3.8,3.6,5.8,5.4.4.4.7,1.5,1.5.8.4-.3-.3-.9-.7-1.3-1.4-1.5-2.9-3-4.3-4.5-.4-.4-.9-1-.4-1.4.7-.5,1.1.5,1.6.8.2.1.5.3.7.4.1.2.3.3.4.5-.1-.2-.3-.3-.5-.4,0-.4,0-.9,0-1.3-.3-.4-.3-.9,0-1.3,4.5,4.7,8.5,9.8,12.1,15.2.9,1.3,2,2.2,3.5,2.7,1.7,0,2.1,1.5,2.9,2.6,1.3,2.8,3.6,5,5.1,7.6.5.9,1.9,1.7,1,2.9-.8,1.1-1.7,0-2.6-.1-.9,0-1.6.2-2.4.4-.8-.2-1.5-.7-1.8-1.5-.5-1.1-.8-2.4-2.6-1.8-3.4-1.4-6.4-3.4-9.2-5.6-3.8-3-8.2-5.3-11.8-8.6-.7-.9-1.7-1.3-2.6-1.9h0c-.3-.2-.4-.4-.3-.7.1-.4.3-.8.6-1.2.2-.2.4-.4.6-.6.5,0,.7.3.9.8.3.3.5.6.9.9h0c.2.3.5.6.9.8h0c.7.5,1.4,1.3,2.5.9,2.4,1.2,3.8,3.9,6.8,4.2,1.1.6,1.9,1.6,3,2.2.3.1.4.3.4.6,0-.3-.1-.5-.4-.6-1.1-.7-1.9-1.6-3-2.3Z"/><path class="cls-18" d="m310.5,594c1.7,1.7,3.1,4.3,5,4.8,2.3.5,3,1.8,3.8,3.4.6,1,1,2.4-.3,2.9-1.1.4-2.6.5-3.2-1.4-.4-1.2-.6-1.2-1.9.1,0,2.1,1.4,4,.7,6.1-.8,1.6-1.5,1.1-2.2-.1-1.3-2.3-2.9-4.3-5.2-5.7h0c-.2-.3-.5-.6-.9-.8h0c-.2-.3-.5-.6-.9-.8h0c-1.1-.8-2.2-1.8-3.4-2.5h0c-3.7-3.1-7-6.5-10.2-10.1h0c-.4-.6-.6-1.2-.7-1.9.4-2.6,2.3-3.1,4.5-3.2,2.2.3,3.6,2,5.5,2.9,3.1,2,6.3,4.1,9.1,6.5Z"/><path class="cls-9" d="m278.6,571.1c-1.3.2-.6,1.9-1.6,2.4-1.3,0-2.7-.7-2.8,1.7,0,1.5-1,3.1-2.7,3.8-.4,0-.8,0-1.1,0-4.3-1.8-8.5-4.1-13.1-5.3-.8-.1-1.3-.6-1.6-1.3-1.3-2.6-2.4-5.3-3.7-7.9-.8-2.2-1.9-4.3-3.5-6.1-1.1-1.2-2.4-2.6-1.1-4.4,1.7-1,3.4-.6,5.1,0,1.8.9,3.5,1.7,4.6,3.5.1.2.2.5.3.8.4,2.6-1.2,6.3,1.9,7.6,3.5,1.5,7.3,3,11.3,2.9.3,0,.6.3.9.1-.4,0-.8-.3-1.2-.3-.9-.2-1.5-.7-2-1.5-.3-1.1-.2-2.5,1.1-1.9,3.1,1.4,7,1,9.1,4.3.3.3.4.7.5,1.1,0,.2-.1.4-.2.5Z"/><path class="cls-163" d="m123.9,428.1c0,.3,0,.5,0,.8,1.5,2.9-.5,6.5,1.7,9.3.7,1.7-1.3,3.4-.2,5.1.3.2.4.3.4.6,0,.2-.1.3-.2.3h0c-2,1.3-1.9-.8-2.5-1.6-.3-.9-1.1-1.7-.8-2.8-.5-2.1-1.6-3.7-3.3-4.8.2-1.7.6-3.4.6-5.2,0-.8-.4-2-1.5-2.2-1-.1-1,1.1-1.4,1.7-.3.4-.3,1-.5,1.6-.3.2-.5.4-.7.6h0c-2.3.3-4.6-.6-6.9-.5-1.4,0-4,0-3.5-2.4.4-2,2.1-3.6,4.6-3.4,1.6.2,3.1,1.4,4.8.4,0-.4,0-.7.1-1.1.5-.9.5-2.7,2.4-1.6,1.3,1.5,2.1,1.1,2.6-.6-.2-.2-.3-.4-.2-.7,0-.2.2-.3.2-.3,1,1.6,2.3,2.5,4.2,1.7,2.1-1.3,3.6-4.5,6.7-1.7h0c.9.6,1.6,1.7.3,2.2-2.5,1.1-3.8,3.7-6.4,4.6h-.3s-.3,0-.3,0h0Z"/><path class="cls-222" d="m155.1,420.4c-1.9-.9-1.9,1.7-3.2,1.8-1.9.4-2.9,2.7-5.1,2.6-1.3-1.3-6.2-.3-2.7-4.5h0c2.2-1.3,5-1.4,7-3.1,1-.9.1-2,.2-3,.3-1.3,1.5-2.1,2.2-3.1.3-.3.5-.5.8-.8,1.2.3,1.2,1.5,1.6,2.3.5,1.2,1.1.2,1.6.2,2.5-.8,2.9-3.4,4.4-5.1h0c.5-.4,1.1-.4,1.6,0,3,1.1,1.4,3.6.8,4.7-.8,1.5-2.7,2.8-4.8,2.8,1.1,2.3,2.9,4,4.2,6.1-.3,2.1,0,4.3-1.6,6.1-.9-3.8-5.2-4.1-7-6.9Z"/><path class="cls-6" d="m270.2,557.5c.3-.8.9-.8,1.6-.8.9,0,1.9,0,2.5.8.2.3.2.7,0,1,.4-.3.2-.6,0-.9-.5-.7-1.5-.9-1.7-1.9.6-.7.6-1.9,1.6-2.4.4-.1.8-.3,1-.6,2.3-3.1,4.1-2,5.7.7.5.6,1.1,1.1,1.4,1.8.9,2.7,1.9,5.3-.4,7.8-.2.4-1,.4-.7,1.1,0,.4,0,.7-.2,1.1-.7.7-1.7,1-2.6,1.3-3.4.6-6.7.6-9.4-2.2-.2-2.4,1.1-4.6,1.1-6.9Z"/><path class="cls-274" d="m552.9,344.5c.3.4-.6,1.3.4,1.2.9-.1,1.8-.8,2.7-1.1,1.2-.4,1.6.2,1.1,1.2-1.5,3.1-2.3,6.1-1.5,9.6.4,2-.9,1.9-2.3,1.1-1.5-.9-3-2.6-4.3.2-.4.9-.8.6-.9-.1-.2-3.6-2.7-4.7-5.7-5.5-1.6-.4-.9-1.3.1-1.9,3-1.8,6.3-3.1,8-6.5,1.2,0,1.9.8,2.4,1.9Z"/><path class="cls-288" d="m279.7,549.2c1.5.8,2.4-.5,3.6-.9,5.9,1.3,9.3,5,10.5,10.9h0c-1.4,3-4.4,4.4-6.8,6.4v.3c-1.8,1.4-3.2.5-4.5-.9-.2-3,2.2-5.9.4-9-.3-.6-.6-1.2-1.1-1.6-.4-.4-.6-1-.9-1.5-.6-1.2-2.8-1.8-1.1-3.7Z"/><path class="cls-291" d="m46.2,331.1c-1.2,1.4-2.6,2.4-4.2,3.1-3.5.5-6-.9-7.5-4.1,0-.5-.2-1.1-.3-1.6.2-1.5,0-3.1.9-4.5,0-.4.2-.7.6-.9,2.5-1.4,5.1-4,7.9-1.5,2.6,2.3,4.3,5.6,2.6,9.4Z"/><path class="cls-287" d="m546.3,499.1c-2,.5-3.4,1.4-3.6,3.8-.1,1.3-.7,2.7-1.4,3.8-.9,1.6-1.9,1.3-2.5-.3-.5-1.2-.9-2.4-2.2-3-2.4,0-4.1,2-6.3,2.3-.3,0-.6,0-.9.1-1.3-1.3.1-1.8.7-2.5,1.7-1.3,2.1-2.6.4-4.3-.6-.5-1.3-1.1-.9-2.1,1.9-.4,4,.1,5.7-1.1.7-.8,1.2-1.9,2.4-2.1.4,0,.7.2.9.5h0c.5.5.5,1.1,0,1.7.2.3.5.5.7.8,1.9,1.7,5.2,0,6.8,2.5Z"/><path class="cls-99" d="m245.6,524.5c2.1,1.8,4.1,3.8,6.3,5.5,1.3,1,2.5,2.2,4.7,1.6,1.7-.4,3.6,1,5,2.4.5.4.6.9.6,1.5,0,.4-.3.7-.6,1-1,.2-1.7-.6-2.6-.8-.5,0-.9-.6-1.5-.5.4,1.6-1.8,3.3.1,4.9.3.1.6.3.8.6-.4,1.8,1.8,1.3,2.2,2.4-.3.3-.6.5-.9.7-1.1.3-2.2.4-3.2,0-2.9-.9-3.6.7-3.7,3.1-.4.9-1.1,1.5-1.8,2.2-.3.2-.6.4-1,.5-.3,0-.7.1-1,.2-.8,0-1.6.4-2.1,1-.2.3-.5.5-.8.7-.3.2-.7.3-1,.3-.5-.2-1-.5-.5-1.2.5-1.9,1.6-3.3,3.4-4.2,2-1,.6-3.4,1.9-4.8q2.9-5-1.5-8.9c-.2-.2-.4-.4-.4-.6,0,.7.7,1,.8,1.6.3,1,.3,2.1,0,3.1-.2.4-.3.9-.7,1-1.8.6-1.7-1-1.9-1.9-.5-2.1-1.8-4.4.2-6.3,1.3-1.2,2.3.3,3.2,1.1.8.7,1.6,1.1,2.4,1.6.2.1.4.2.6.3,0,0,0,0,0-.1-3.1-2.3-7-3.7-8-8.1.3-.3.7-.3,1,0Z"/><path class="cls-89" d="m244.7,550.7c.3.3.5.6.8.8.6.3.8.9.9,1.5-.7,2.4,2.2,3.7,1.8,6-1.5,2.9-2.4,5.9-1.1,9.2.2.5.2,1.1.2,1.7,0,.5,0,1.1-.7,1.3-.7.1-.9-.4-1.2-.9-1.6-2.7-1.7-5.6-1.3-8.6,0-.7.6-1.4.5-2,0-.9.8-2.1-.4-2.5-.7-.3-1,1.3-2,1.2-2.4-.7-1.8,1.7-2.6,2.6-.7,2.2-.8,4.3.6,6.3.3.4-.1-.2.2.3-.2-.2-.3-.4-.4-.6-1.2-1.9-.8-3.8-.6-5.8,1-.8.4-3.3,2.8-2.7.1.6,0,1.1-.3,1.6-1.7,2.7-1.5,5.2.8,7.6.9,1,2.4,2.3,1,3.6-1.6,1.4-2.8-.4-3.7-1.4-3.8-3.9-3.4-9.7.9-14.3,1.4-1.5,3-2.8,3.8-4.9Z"/><path class="cls-3" d="m265.8,587.3c0,1.3-.1,2.6-.2,3.9-2.3-2.5-3.5-6-7.4-6.8-4.4-2.7-.6-5.3.1-7.9.8-2.8,3-2,4.8-1.1,2.5,1.2,5.2,2,7.7,3.3h0c.6,1.9-1,2.7-2,3.8-1.3,1.4-2.7,2.8-3.1,4.8Z"/><path class="cls-15" d="m164.5,632.9c0-.5,0-1.1,0-1.6-.3-1.6-2-2.4-2.2-4-.4-4.5.8-6.7,4.8-8.5.8-.4,2-.1,2.5-1.2.3-.3.6-.6.9-.9.4-.2.7-.4.9-.8h0c2.2.2,1.5,2,1.7,3.2.7,4.6-1.1,8.5-3.8,12-1,1.3-2.3,3-4.6,1.8Z"/><path class="cls-275" d="m382.2,470.5c-.6.3-1.1.9-1.8.7-4.4,1.1-1-2.5-2.1-3.4,0-.2,0-.5,0-.7-1-2.5.9-3.6,2.4-4.9-.1-2.5,2.5-2.5,3.6-3.8,1.3-1.1,2.2-1.1,2.5.8.1.8,0,1.7.7,2.2.5.3,1,.5,1.4.8.9.7,2.6.8,2.3,2.5-.3,1.4-1.8.9-2.7,1.4-.6.3-1.3.4-1.8,1h0c-.6.4-.7,1.2-.7,1.8-.4,2.7-1.9,2.6-3.8,1.7Z"/><path class="cls-210" d="m222.6,384.8c-.5,2.4-1.5,3.1-3.5,1.3-.5-.5-.7-.3-.5,1.3-3.1.1-6.2-1.2-9.3,0-2.1-.7-3.1-4-6-2.5-.7-.5-1.5,0-2.2,0-2.3-.4-3-1.2-.8-2.9.3-.2.7-.4,1-.5,1.2-.7,2.7-.8,3.9-1.6.3-.6.2-1.2.3-1.8.2-.7.6-1.1,1.1-1.6,1,.1,1.1,1.9,2.4,1.4.2,0,.4.1.6.2,3.3,4.2,8.1,5.5,13,6.6Z"/><path class="cls-107" d="m123.9,375.6c-1,.1-.6,1.7-1.8,1.7-2.2-.2-5.4,3.6-6.5-1.5,1-2.6,3.9-1.5,5.6-2.7.7-2.1.8-5.2,4.3-2.5.6-.6,1.1-1.1,1.7-1.7,1.1-.2,1.3-1.3,1.8-2.1.7-1.2,1.1-2.8,2.8-2.5,2.2.5,1.3,2.4,1.4,3.8-.6,2.3-2.1,3.6-4.3,4.2-.2,1.7,1,2.7,2,3.7.7.6,2,1.1,1.3,2.2-.8,1.2-2.2,1-3.3.2-1.6-1-2.8-2.6-4.9-2.8Z"/><path class="cls-21" d="m69,610.4c-.2.3-.4.7-.8.9-2.1,1.5-2.3,1.4-2.6-1,0-.7,0-1.3,0-2,.6-2.4-3.2-1.9-2.7-4.2,2.4-.9,4.5-2.1,4.4-5.2h0c1-.5,1.2.4,1.8.9h0c.5.5.3,1.3.9,1.7h0c.2.2.4.3.7.3,1.5.2,3.7-1.6,4.1-.4.6,2.1,2.3,4.5.5,6.9-1.3.7-.2,2-.6,2.9-1.5.8-2.2-.4-3.2-1.1-.8-.6-1.7-1.2-2.3.2Z"/><path class="cls-187" d="m221.1,472.1c-2.1-2.1-2.4-5-3.3-7.6-5.5-16.3-10.5-32.7-15.1-49.3-.2-.7-.6-1.6,0-1.9.6-.2,1.1.7,1.3,1.3,1,3.6,2,7.3,3,10.9,3.7,13.8,8.5,27.2,12.8,40.8.6,1.9,1.4,3.7,1.2,5.7h0Z"/><path class="cls-231" d="m82.6,399.3l1.5-.8c1.5-.6,2.4-2,3.8-2.8,2.1-.7,4.2-1.2,5.7,1.2-.1.6-.2,1.3-.9,1.5-.8-.4-1.2.4-1.8.5-2.7.8-3.9,2.1-1.4,4.5.4.4.5,1,.8,1.4.2.4.2.7,0,1.1,0,.6-.1,1.3-.2,1.9-1.6-.2-3.1-1-4.8-1.1-1.2-.1-2.9-.3-2.7-2.3-.2-1-1.2-1.4-1.7-2.2-1.4-2.1-2.4-.3-3.5.3-.4-.5-.4-1,.1-1.4,0-.2,0-.5,0-.8,0-1.6-1.4-1.9-2.4-2.7,1.9-1.5,3.9-1.5,5.8-.2.2,1,.8,1.6,1.8,1.8Z"/><path class="cls-187" d="m227,485.7c-.7-5.7-2.6-11-3.7-16.6-1.9-9.8-4.2-19.5-6.3-29.2.5-.5,0-1.3.8-1.7,1.7,6.9,3.6,13.7,4.9,20.7,1.8,9.5,4.1,18.8,6.3,28.2.3,1.3.5,2.5.4,3.7,0,.8-.1,1.5-1,1.8-.8-1.3-1.7-2.4-.9-4.1.4-.9.7-2.2-.6-2.8h0Z"/><path class="cls-285" d="m421.4,354.2c-.8.4-1.5.7-2.3,1.1-1.6-1.4-2.7-3.3-4.5-4.4,1.5-1.6,3.1-3.1,2.6-5.8-.2-1.1.8-2.2,1.7-1,1.8,2.2,3.9,2.2,6.3,1.6,1.1-.2,1.2,0,.5,1.9-1.2.2-1.5,1.3-1.9,2.2.5,1.2,1,2.5,1.5,3.7-1.1,1.4-2.7,0-4,.7Z"/><path class="cls-160" d="m250.5,542.3c-.1.9-.5,1.6-.2,2.7.4,1.5,0,3.4-2.3,1.5-2-2-1.9-4.8-2.4-7.3-.5-2.4-1.1-4.8-1.6-7.2.8-2.1-.6-3.9-1-5.9-.1-.7-.8-2.1,1-1.5,2.9,2.9,5.9,5.7,9.3,8.2.1.4,0,.6-.4.5-1.6-.3-2.7-1.4-3.9-2.2-.8-.5-1.4-1.8-2.4-1.1-.7.6-.3,1.9-.1,2.8.3,1.5.7,3,1,4.4.2.8.5-.4.8-.6,2.6,1.2,1.8,3.7,2.1,5.8Z"/><path class="cls-228" d="m214.4,483.9c-1.2-.4-1.1-2-2.2-2.5l-3-5.1c-.4-.5-.2-.8.2-1.1.3.1.5,0,.7-.2,0,0,0-.4,0-.4-2.8-5.9-5.6-11.7-8.3-17.6-.4-.9-.8-1.8-1.1-2.7-.3-.9,0-1,.8-.8,5.6,11.7,11.5,23.2,17.6,34.7-3.3.5-3.3-2.7-4.7-4.3Z"/><path class="cls-149" d="m192.4,466c-1.4,1.2.3,1.5.7,2.1,1.4,2-.7,1-1.2,1.5-4.1-2.4-6.9-6.3-10.4-9.4-1.2-1-2.5-2.1-3.5-3.4.2-.3.5-.6.8-.8.9-.9,1.7,3.2,2.6,0h0c1.1-.2,1.9.4,2.4,1.2,2.2,3.6,5.5,6,8.6,8.7Z"/><path class="cls-240" d="m259.2,583.8c3.7,1.1,6.4,3,6.5,7.3,0,6.9-3.9,13-3.8,19.9,0,.4-.2.7-.6.8-.7-.2-.9-.6-.6-1.3-.2-3.6,1.3-7.2.5-10.9,0-.2,0-.8.1-.8,4-.8,2-3.7,2.2-6,.2-3.4-2.5-4.4-4.3-6.2,0,0,0-.3,0-.4.6-.8-.3-1.7.2-2.5Z"/><path class="cls-215" d="m201.5,453.6c-.5,0-.7.4-.8.8-4.2-8.2-7.9-16.6-11.7-25-2-4.5-4-8.9-6-13.4-.5-1-.9-2-.8-3.2h0c3.7,5.4,5.6,11.7,8.5,17.5,1.6,3.2,2.6,6.6,4.9,9.5.5.3.5.7.2,1.2,1.9,4.2,3.8,8.4,5.8,12.6Z"/><path class="cls-176" d="m162.7,373.8c-.3-.5-.6-1-.8-1.5,0-.8.2-1.5.9-2,.8-.3,1.8.2,2.6-.3.3-.2.6-.3.9-.4,2.1,3.2,4.5,5.8,8.4,7,.6.2,3.4,0,1.7,2.3-.8-.2-1.7-1.1-2.5,0h0c-.2,0-.3.2-.3.4,0,.2,0,.3.1.3-.2.9-.6,1.5-1.5,1.8-.5-.6-.6-1.2,0-1.9,0-1.3.2-2.6-1.9-1.9-1,.3-1.9,1.9-3.2.5-.6-1.1-2.1-1.5-2.5-2.8,0-.3,0-.5,0-.8-.4-.7-1.3-.3-1.7-.9Z"/><path class="cls-247" d="m210,376.5c2.3-3,5.2-4.4,9.1-4,1.8.2,3.6-.3,5.4-.6.9-.1,2-.9,2.5.5.5,1.2-.2,2.3-1.2,2.8-2.5,1.4-5,2.7-7.9,1.4-.6-.3-1.2-.6-1.9-1-.2-1.4.8-1.2,1.6-1.2.9,0,1.8-.1,2.8.1-.9-.3-1.9-.1-2.8-.1-1.9,0-3.5.8-4.9,2.1-.8.7-1.8,1.9-2.7,0Z"/><path class="cls-49" d="m265.8,587.3c-.4-1.3-.9-2.5.6-3.7,1.7-1.4,3-3.3,4.5-4.9,1.6-1,2.4-2.4,2.8-4.3.5-2.2,1.7-2.7,3.4-.9-1.5,6.4-5.9,10.5-11.2,13.8Z"/><path class="cls-23" d="m258.4,376.3c.3,0,.5,0,.8,0,1.4-.3,3.9-.9,4,.4.1,1.6.4,3.9-1.2,5.3-1.6,1.4-3.5,2.4-5.4.3h0c-.7-1.4-2-1.1-3.2-1.3-1.9-.4-1.2-1.3-.2-2.1h0c.3-.2.6-.5.9-.8h0c1.1-1.2,0-2.9.9-4.2h0c2-.4,2.3,1.8,3.6,2.4Z"/><path class="cls-169" d="m200.7,410.3c-1.3-1.2-1.8-3.5-4.2-3.4h0c0-.1-.1-.3-.1-.5,0-1,.7-1.3,1.6-1.2,2.8,1.3,4.9,1.6,6.9.9,2.9,0,2.7,2.9,4.2,4.2.7,0,1.3.2,1.7.9.4,1.2,1.9,2.3.1,3.5-1.2.8-2,0-2.6-.9-.3-.3-.6-.5-.9-.8-2.1-1.3-4.5-1.7-6.8-2.6Z"/><path class="cls-5" d="m239,659.7c.4-.6.7-1.2,1.5-1.5.3-.3.6-.5.8-.9h0c.9-.8,1-1.8.8-3-.2-1.3.4-1.7,1.6-1.5.6.4,1.3.8,1.9,1.2h0c1.4,1.1,3.8-1,4.8,2.4,1,3.5-2.9,3.2-3,5.7,0,1.3-1.7-.2-2.5-.8-1.8-1.2-4.1-.3-5.8-1.6Z"/><path class="cls-125" d="m260.6,610.5c.2.5.4.9,1,1.1.2,0,.4,0,.6,0,1.3,2.7,3.2,4.2,6.4,4.7,4.3.6,7.2,3.4,10.3,6,1.3,1.1.1,2.6-.4,3.8-2.1-5.1-6.6-8-13-7.8-2.5,0-4.2-.2-3.9-3.2.2-1.7-2.9-2.6-1-4.6Z"/><path class="cls-221" d="m164.5,632.9c.6,0,1.2.1,1.7-.1,4.3-2.5,7.1-11.9,5-16.9,1.8-1.5,2,.5,2.3,1.3.4,1.2.4,2.6,1.1,3.8-1.1,2-.8,4.4-2,6.3-.3.5-1.3,1.4-.4,1.9.4.2,1.2-.9,1.6-1.7,1.1-2.1-.4-4.5.8-6.5.4.3.7.7,1.1,1,.1.2.3.4.5.6,1.3,6.4-.3,8.9-6.5,9.9-1.2.2-2,.9-2.9,1.5-1.3.8-1.8,0-2.1-1Z"/><path class="cls-82" d="m61.4,376.2c0,.4,0,.7,0,1.1-.2,1.5,1.3,2.9.5,4.5-.3.6-.7.9-1.4,1-2.2-.5-2.9-2.7-4.6-3.8h-.3c0,.1-.3,0-.3,0-.3-.3-.4-.6-.5-1,0-1.5-.6-3.1.4-4.5,2.8-.2,5.5-.5,7.6-3,.8-1,2.1-.6,2.2,1.1-.4,2.2-2.6,2.9-3.8,4.5Z"/><path class="cls-70" d="m223.5,495.8c2.9,3.9,5.8,7.8,8.6,11.7,1.3.6,2.5,1.3,3.2,2.7.4.8.8,1.6,1.2,2.4,0,1.2-.4,2-1.8,1.6-3.5-6.2-7.9-11.7-13.6-16.1-.3-.2-.6-.4-.9-.7h0c-.4-1.1.4-1.2,1.1-1.2.5.3.8.7,1.2,1,.4.4-.1,0,.3.3,0-.1-.2-.2-.3-.3-.4-.4-.8-.7-1-1.2,0-.9-.4-1.9,1.1-1.9.2.2.3.4.3.6.1.4.4.7.7,1Z"/><path class="cls-282" d="m153.5,588.6c0-.1,0-.3,0-.4.6-1.7.8-3.4.5-5.2-.1-1-1.4-2.1,0-2.9,1.1-.6,2,.6,2.9,1h0c1.2,1.1,2.5,1.6,4.2.8,1.5-.7,2.6-.2,1.7,1.8h0c-.2,2.5-2.9,3.6-3.4,5.9h0c-1.9-.8-3.9-.9-5.9-1Z"/><path class="cls-54" d="m201.8,384.3c.7-.1,1.4-.4,1.5.7-2.4,1.2-3.8,3.5-5.5,5.4-1,1.2-1.1,2.8-3.2.9-.6-.5-3.2.8-4.9,1-.5,0-1,.6-1.1-.2,0-.5.3-1.1,1-1.2.5-.2.9-.5,1.1-1h-.2c.6-.2.8-.9,1.4-1.2.2-.2.5-.4.7-.7.1-.1.2-.2.3-.4.3-.4.6-.9.9-1.3.2-.3.5-.5.8-.7.2-.2.5-.4.7-.3,2.3.9,4.4-.2,6.5-1Z"/><path class="cls-49" d="m259.2,583.8c-.4.8,3.5,1.9-.2,2.5h.1c-.4-.5-1-.5-1.5-.3-.9-.2-1.8-.5-2.7-.7-.4-.1-.6-.4-.8-.7,2.1-2.8,2.4-6.3,4-9.3.4-.7,0-1.3-.7-1.7.2-.2.4-.6.5-.5,4.7,1.2,9.4,2.3,13.1,5.6-3.2,0-5.9-1.6-8.6-2.9-1.9-.9-3.1-.7-3.8,1.5-.2.8-.6,1.6-1,2.3-1.2,2.1-.7,3.6,1.6,4.3Z"/><path class="cls-81" d="m242.9,603.2c-.3,2.5,0,4.7,2,6.5.8.8,1.5,1.9.9,3.3-.6,1.4.5,2.7,1.1,3.9,1.9,3.2,1.9,7,2.9,10.4.2.8,0,1.7-.7,2.2-2.1-7.6-4.3-15.2-7.4-22.5-.7-1.5-.6-3.3.5-4.8.5,0,.5.6.8.9Z"/><path class="cls-57" d="m114.6,425.6c-1.4,1.4-2.8.7-4.3.2-1.3-.4-2.5-.2-3.4.9-.6.7-1.6,1.5-1.2,2.5.4,1,1.5.1,2.2.4,2.5.9,5.5-.4,7.6,1.9-.2.3-.4.7-.7,1-1.5,1.5-2.5-.5-3.6-.4-1.3.1-2.8,2.2-3.7,1.1-1.4-1.8-2.1.4-3,0-.9-1-1.4-2.1-.9-3.5,3.1-5.7,3.4-5.9,9.4-4.2.5.1,1.1,0,1.7,0Z"/><path class="cls-166" d="m234.7,514.2c.6-.5,1.2-1.1,1.8-1.6,2.4,3.4,4.9,6.9,7.3,10.3-.5.7.3.5.5.8.7-.2,1,.3,1.2.8-.5,0-1,0-1.4,0-1.8.8-.2,1.9,0,2.7.3,1.6,1.2,3.1,0,4.7-.2-2.8-2.2-5.2-2.1-8.1,0-1.4-1.4-1.2-1.9-2-1.8-2.6-3-5.5-5.4-7.7Z"/><path class="cls-168" d="m121.4,407.8c-1.8,0-3.1-1.3-4.3-2.3-7.4-5.9-14.6-11.9-21.9-17.9.2-.4.4-.6.8-.8,5.3,4.3,10.8,8.4,15.9,12.9,3.1,2.7,7,4.6,9.5,8.1h0Z"/><path class="cls-7" d="m89.2,504v-.3c-.3-.9-.8-2.1.1-2.7,1.3-.8,1.8.8,2.5,1.5h0c1,1.5,3.5.3,4.1,2.4-.6.2-1.3.3-1.4,1.1.2.3.4.5.7.8h0c-.4,3.3-2.6,4.6-4.7,2.4-.9-1-4.3.8-2.9-2.5.3-.5.6-1,.9-1.5.2-.4.5-.7.7-1.2Z"/><path class="cls-38" d="m88.5,362.8c.7.9,1,2.1,2.6,2.2.9,0,.6.9,0,1.4-.9,0-1.9.9-2.8,0-.7-.8-1.8-.7-2.6-1.3-1.8-1.5-3-.8-4.3.8-1.9,2.2-2,2.1-3.7-.6-.7-1,.2-1.1.7-1.4.9-3.2,3.8-1.9,5.8-2.6.2,0,.3.2.5.2.7.5,1.3,1.2,2.3,1.2.5,0,1,0,1.5,0Z"/><path class="cls-223" d="m239,659.7c2.4.4,5.1-.6,7,1.9.5.7,1.2.7,1.3-.4,0-.9.7-1.5,1.1-2.2.4-.7,2.4-.2,1.3-1.7-.8-1-.3-3.5-2.9-2.6-.5.2-1-.3-1.3-.8,1.1-.2,2.2-.6,3.3-.5,1.2,0,3.1-.2,1.9,2.2-.3.6.4,1,.8,1.3,2.3,1.8.8,2.5-.9,2.8-1.5.2-2.4.8-2.4,2.3,0,2.5-1,2.8-2.6,1-1.7-1.9-3.6-2.1-6.1-1.7-2,.4-1-.9-.5-1.7Z"/><path class="cls-138" d="m144.1,420.4c-1,1.6-1.4,3.1,1.1,3.1,1.2,0,1.2.5,1.4,1.2,0,0,0,.3,0,.3-.1.2-.3.3-.4.4,0,0-.3,0-.3,0-1.2,1.2-2.1,2.9-4.3,2.5-1.2-.2-1.9.9-2.6,1.7-.5.6-1.1.5-1.7.3h-.4c0,0-.4,0-.4,0-.5-1,.2-1.5.9-1.9,1.8-1.5,3-3.5,4.3-5.4.6-.9.8-2.4,2.5-2.3Z"/><path class="cls-48" d="m275.1,655.6c.2,1.5-1.4,2.2-1.6,3.5-.3.5-.6,1.1-1,1.6-.3.2-.5.6-.6.9-.3.6-.7,1.2-1,1.7-.3.2-.5.4-.6.8-.8,1-1.5,2.1-1.8,3.4-.1.2-.2.5-.2.8-.3.2-.4.5-.6.9l-.4,1.5c0,.4-.4.7-.6,1.1,0,1.5-1.1,2.7-.9,4.3,0,.5-.1,1.1-.2,1.6-1.4,1.7,1.1,4.5-1.5,5.9-1-11.1,3.5-20,10.9-27.9Z"/><path class="cls-139" d="m55.4,373.9c-1,1.5,1.9,3,0,4.5-1.3,1.2-4.6-.2-4.1,3.2,0,.2-.1.5-.2.7-1.4.1-2.7,1-4.2.9,0-.5.1-1.1.2-1.6.6-.8,0-1.9.7-2.6.3-.4.6-1.1,1-1.2,3.2-.7,4.3-2.7,4.1-5.8,0-1,.6-1,1.3-.7.8.3,1.5.6,2.3.8-.1.4-.4.7-.8,1-.3,0-.5.2-.6.5,0,0,.2.3.2.3Z"/><path class="cls-71" d="m271.7,633.7c2.1-.6,3.2-2.6,5.1-3.5,0,3.6-1.5,6.8-3.1,9.9-.4.9-.9,2-2.1,1.5-1.1-.4-.6-1.7-.7-2.6-.2-1.8,1.6-3.3.8-5.3Z"/><path class="cls-77" d="m222.6,494.2c-1,.6-.5,1.6-.6,2.4h-.1c-.7.1-1.4,0-1.6.9-1.4-.9-2.8-1.7-4.1-2.6,1.1-.8,1.6-3.6,3.7-1.1.2.2.6.3.9.5.2-.4,0-.7-.3-1-1.1-1.4-2.2-2.8-3.3-4.2-1.2-1.5-2.6-2.9-2.6-5,2,1,2,4.1,4.7,4.3,1.2,2,2.3,3.9,3.5,5.9Z"/><path class="cls-268" d="m209.3,410.3c-2-.8-2.1-3.5-4.2-4.2-.5-.7-1.6-1.4-.4-2.4.8-.7,1.6-1.4,2.4-2.2.8-.7,2-.8,2.6-1.9-1.5-.5-3-.5-4.3.5-.3.3-.6.6-.9.9-.3.2-.4.8-.8.5-.4-.3-.2-.7,0-1.1,1.1-2,3.4-3,5.6-2.3.9.3,2,.3,2.6,1.3,0,.6.5,1.2,0,1.7-2.6-.4-3.4,2-4.9,3.2-.8.6,0,1.5.5,2.1,1,1.2,1.8,2.4,1.9,4Z"/><path class="cls-174" d="m199.7,461.3c-2.7-2.5-4.3-5.8-6.3-8.8-2.8-4.5-6.5-8.4-8.9-13.1-.2-.5,0-.6.4-.4,3.3,2.6,4.9,6.4,7.1,9.7,2.7,4,5.7,7.9,8,12.2-.1.1-.3.2-.4.4Z"/><path class="cls-172" d="m169.5,385.8c3.4,4.2,5.4,9.3,7.3,14.3,1.5,3.7,4.2,6.9,4.5,11.1h0c-1.5-1.2-2-3-2.7-4.6-2.8-5.7-5.5-11.5-8.2-17.2-.5-1.1-1.2-2.2-.9-3.6h0Z"/><path class="cls-137" d="m259.9,543.1c.3,0,.5,0,.8,0,1.7,3.3.8,6.7.1,10.1-.2,1.2-1.6,2.6,1.4,2.2,1.9-.3,3.4,2.1,4.5,3.9,0,1-.7,1-1.4.8-6.7-1.4-8.3-5.6-6.6-11.8.5-1.7-.1-3.7,1.2-5.2Z"/><path class="cls-271" d="m84.2,361.3c1.6-2,0-2.6-1.4-3.3-.5-.3-1-.3-1.5-.5.6-.5,1.4-.5,1.9-.2,2.1,1.2,3.3.2,4.5-1.4,1.3-1.7,3.2-1.4,5-1.3.4,0,.6.2.5.4-.8,1.6-1.9,2.9-3.4,3.9-.9.6-1.8,0-2.7,0-1.2,0-.2,1-.3,1.5.3.4.3.8-.1,1.1-.9.5-1.7.4-2.5-.3h0Z"/><path class="cls-29" d="m133.2,368.1c-.5-.2-2.2.5-1.1-1.1.6-.9.9-1.4,0-2.1-.9-.7-1.6,0-2,.7-.5,1-.9,2.1-1.5,3-.3.6-.8,1.3-1.5.2,1.4-3,2.6-6.1,6.4-6.9,1-.2,2.1-1.3,3-.3.9,1.1.2,2.3-.8,3.2-.4.1-.6.4-.8.7-.2.6,0,1.4-.9,1.7-.3.2-.7.4-.9.8h0Z"/><path class="cls-294" d="m269.2,563.4c2.8,3.1,6.4,2.9,10.1,2.5.9-.5.9,0,.8.7-1.8.5-1.7,1.5-.8,2.7,0,0-.1.4-.1.4-.2.2-.5.3-.7.3-.6-.8-2.2.1-2.5-1.6-.3-1.6-2-.6-3-.8-1.4-.3-2.6-.8-3.7-1.6-.9-.6-.6.4-.8.8-.2,0-.4.2-.6.2-2.8-1.6-1.9-3.1,0-4.6.7,0,1,.5,1.3,1.1Z"/><path class="cls-260" d="m121.3,390.9c1-.2,1.6.4,2.1,1,5.5,5.5,11,10.9,16.5,16.4.1.4,0,.6-.4.4-2.9-1.5-4.8-4.2-7.1-6.5-3.7-3.8-8.1-7-11.2-11.4h0Z"/><path class="cls-198" d="m132.2,408c-6.5-5.1-12.7-10.4-18.6-16.1.1-.1.3-.3.4-.4,6.5,5,13,10,18.5,16.1-.1.1-.2.3-.4.4Z"/><path class="cls-26" d="m162.7,373.8c.8,0,1.8-.6,1.7.9-2.2.4-4.2,1.8-6.5,1.9-2.2,1.3-1.9,3.8-2.7,5.9,0,.9-.2,1.7-1.2,2-.7.2-1.3.5-1.5-.7-.7-4,1.7-7.8,5.7-8.9,1.5-.4,3-.8,4.4-1.2Z"/><path class="cls-79" d="m123.9,375.6c.5-.8,1-.7,1.7-.2,1.2.9,2.5,1.7,3.8,2.5.8.5,1.8.6,2.3,0,.4-.6-.5-1.1-1.1-1.4-1.6-.8-1.8-2.8-3.2-3.7-.4-.3-.9-.9,0-1.1.4,0,1,.4,1.5.7,1.3,1.4,1.9,3.4,4.1,3.9,1.5.3,1.7,1.6.7,2.5-1,.8-1,2.3-2.1,2.9-.6-.6-.7-1.7-1.8-1.6-1.6-1.9-4.1-2.5-5.8-4.4Z"/><path class="cls-240" d="m242.9,603.2c-.3-.3-.5-.6-.8-.9,2.1-7.1,5.9-13.1,11.9-17.7l.8.7c-5.7,4.8-9.5,10.9-11.9,17.8Z"/><path class="cls-59" d="m168.5,370.4c-1-2.8.8-3.7,2.9-4.1,2.3-.4,4.7-.3,6.9-1.4.3-.2.8-.1,1,.3,0,.2-.1.6-.3.7-3,1.6-4.9,4.5-7.7,6.2-.3-.2-.6-.4-.9-.7h0c-.5-.8.5-1.4.2-2.1-.6.6-1.2.9-2,1.1Z"/><path class="cls-56" d="m164.6,450.7c6.3,4.6,12.8,9.1,18.7,14.3,0,.5-.1.6-.6.6-6.4-4.5-12.8-9-18.5-14.4-.1-.4,0-.6.4-.4Z"/><path class="cls-262" d="m235.4,510.2c-1.1-.8-3-.8-3.2-2.7,1.5-.6.6-1.5.3-2.3-1.4-4.2-3.1-8.3-4-12.6.2-.7.2-1.5,1-1.8h0c.6.4.4,1.1.7,1.7,1.3,6,3.2,11.9,5.2,17.7Z"/><path class="cls-250" d="m217.8,438.1c-.1.6,0,1.4-.8,1.7-1.6-6.6-2.9-13.3-3.6-20.1,0-.5-.6-1.3,0-1.5,1-.2.8.8.9,1.4,1.1,6.1,2.3,12.3,3.4,18.4Z"/><path class="cls-258" d="m128.9,430.7c1.7,0,2.9,1.2,4,2.1,4.8,3.6,10.1,6.5,14.7,10.4l-.3.4c-6.7-3.5-12.9-7.6-18.4-12.9h0Z"/><path class="cls-52" d="m249,630.1c2.5.6,3.5-2.4,5.7-2.5.9-.3,1.1.1.9.9-2,2.1-4,4.2-6.1,6.3-.6.6-1.5,1.4-2.1,1.1-.8-.4-.2-1.5,0-2.3.4-1.2,1-2.3,1.5-3.4Z"/><path class="cls-34" d="m293.7,559.3c-.8-1.7-2.1-3.2-2.9-5-1-2.2-2.4-4.8-5.8-4.5-.9.1-1.5-.5-1.7-1.5,1.9-2,2.5,1,4.1,1.1,3.4.2,7.2,5.4,7.3,9.1,0,.2-.6.5-.9.7Z"/><path class="cls-235" d="m256.6,382.4c1.9,1.2,3.5,0,5-.9,1.5-1,.2-3,1.2-4.4.5-.6-.7-.5-1.1-.6-.8-.1-1.6-.1-2.5-.2.8-1.1,2-.7,3.1-.8,1.7-.1,2.9.2,1.6,2.2-.5.9-.8,1.7-.3,2.7.9,2.1,1.6,4.1-2.1,2.8-.1,0-.3,0-.4,0-2.5,3.8-3.4.6-4.6-1.1Z"/><path class="cls-194" d="m87.6,506.6c-.3,2.5,2.3.3,2.9,1.7.3.8,1.2,1.4,1.8,2.1,0-2,3.1-1.6,2.9-3.8,1.4.3,1.5,1.5,1.7,2.5.2,1.1-.2,1.6-1.4,1.2-1.3-.4-2.2-.4-2.1,1.3,0,.7.7,1.8-.6,2-.7.1-.9-.9-1.3-1.4-1-1.6-1.7-3-4.3-3.2-2-.2-.3-1.6.3-2.4Z"/><path class="cls-73" d="m197.4,410.3c-1,2.9-1.3,6.1-3.9,8.3-.6.5,0,2-1.1,1.7-.8-.3-.4-1.5-.4-2.3,0-1.4.1-2.8.2-4.2.2-.4.3-.7.6-1.1,1.1-1.7,1.9-3.9,4.7-2.4Z"/><path class="cls-151" d="m58,356.3c-3,1.2-.4,3.4-1,5-1.8.3-2.8-1.5-4.3-1.7-.7-.4-.6-1.6-1.6-1.8-.4-1.6.4-2.7,1.8-3.3.5.3,1,.6,1.5.8.5,0,.9-.4,1.4-.8.6-.5,1.2-1.4,2-.8,1,.7.2,1.7.2,2.6Z"/><path class="cls-110" d="m53,354.5c-.6,1.1-1.2,2.2-1.8,3.3-1.1.6-2.6.3-3.3,1.7.1,2.2,1.8.2,2.5.9.6,3.1-2.7,2.6-3.9,4.1-.2.3-.7-.3-.6-.7.6-2.5,0-5.5,3.3-6.8,1.3-.5.6-3.4,3.1-2.8.3,0,.5.2.8.3Z"/><path class="cls-292" d="m197.4,438.1c0-.3.1-.5.3-.8.8-1-.9-3.1,1.5-3.3h0c.5.8,1.1,1.4,2,1.7h.2c.5-.3,1.1-.5,1.7-.4.9.4.8,1.3.9,2,0,.1.1.3.1.5.8,2.4-1.9,3.3-2.3,2.8-1.1-1.8-5.3,1.8-4.4-2.6Z"/><path class="cls-93" d="m82.5,404.4c.6,1.3,1.7,1.6,3,1.6,1.7,0,3.1.8,4.4,1.8.3.6.9,1.7.7,1.9-1,1-1.1-.3-1.6-.8-.8-.9-7.7-2.7-8.8-2.4-.1,0-.2.2-.4.2-1.8.4-3.6.7-5.4,0,1-2.1,3.1-1.3,4.8-1.7,1.1-.2,2.1-1,3.2-.7Z"/><path class="cls-249" d="m81.6,390.9c-2.1,0-3.1-1.8-4.6-2.7-3.8-2.3-7.5-4.8-11.2-7.3-.4-.3-1.1-.5-.7-1.2,0-.1.8,0,1.1.1,5.5,3.2,11.3,6,15.4,11h0Z"/><path class="cls-219" d="m165.6,455.8c5.2,3.8,10.3,7.6,15.5,11.4.4.3,1.1.7.6,1.2-.5.6-1,0-1.4-.3-5-4-10.5-7.3-15.2-11.7-.2-.5,0-.6.5-.5Z"/><path class="cls-58" d="m61.4,381.7c.6-1.5-1.6-3,0-4.5,1.8,1.6,1.7,4.4,4,6.1,1.8,1.3-.8,2.5-2,3.5-1.4,1.1-2.3.8-2.8-.7-.2-.6,0-1.4,0-2,.2,0,.3-.2.4-.3,2.2-.3.5-1.3.4-2.1Z"/><path class="cls-64" d="m44.6,344.1c.7.2,1.3.3,1.9-.3.8-1,2-1.5,3.2-1.7,1.1-.2,2.9-.8,3.3.2.5,1.2-1.7.9-2.2,2-.4.9-1.8.8-2.2,1.7-.7.8-1.8,0-2.5.8h0c-1.7.4-3-.4-3.3-2-.2-1.2,1-.8,1.7-.7Z"/><path class="cls-132" d="m46.2,331.1c-.1-2.5.2-4.9-1.6-7.2-2.3-2.9-3.8-3.3-6.9-1.2-.6.4-1.1,1.4-2.1.4,1.8-1.4,3-3.6,5.9-3.1,4.3.8,6.8,6.7,4.5,11Z"/><path class="cls-127" d="m124.5,428.1c1.7-1.9,3-4.3,5.8-4.9,1.6-.4,0-1.3.4-1.9,2,.4,3.2,1.2,1.6,3.4h0c-1.7,0-2.4,1.6-3.6,2.5-1.2.9-2.4,2.5-4.2.9Z"/><path class="cls-150" d="m307.2,604.1c3.3.7,4.6,3.5,6.1,6.1,0,0,.2.2.3.1.2-.2.4-.4.6-.5.8-1.2-.4-2.9.9-4,1.3,2.2.6,4.6.6,6.9,0,1.1-.6,1.1-1.3.6-.5-.4-1.1-.9-1.4-1.5-1.6-2.8-3.8-5.1-5.7-7.6Z"/><path class="cls-53" d="m206.7,379.9c0,1.2-.8,1.8-1.9,1.6-1.2-.2-2.1.6-3.2.6-.4-.5-.4-1,0-1.5,0-1.7-3.1-1-2.2-2.6.5-.9,2.3-1.1,3.6-1.5,1.2-.4,2.4-.2,3.6,0,0,.6,0,1.2-.7,1.4-.7.3-2.2.5-.2,1.3.4.1.7.3,1,.6Z"/><path class="cls-242" d="m115.6,375.8c1,1.6,2.1,2.7,4.1,1.2.8-.6,1.7-.8,2.4.2h0c-.3.3-.5.6-.7.9h0c-.3.3-.7.5-1,.7-.3,0-.5,0-.8.2-.6-.2-.5.5-.8.7-.7,0-1.3.2-1.8.7-.7.7-.5,2.7-2,2-.8-.4-.5-2.1-.3-3.2.2-1.2.7-2.4,1-3.6Z"/><path class="cls-226" d="m44.6,344.1c-1.3.6-1.3.6-.7,1.1.7.6,1.5,1.1,2.3,1.6,0,.2.1.5.1.8.5,1.6-.4,2.4-1.9,2.6-.7-.1-1.6-1-2.1.2-.7,1.8-1.8,1.1-3,.6-.3-1.3.7-1.7,1.6-2.1,1.2-.7,1.6-1.7.8-3-.6-.9-.5-1.8.3-2.5.9,0,1.9-.4,2.6.6Z"/><path class="cls-210" d="m210,376.5c.4,1,1.1.7,1.5.1,2.3-2.9,5.5-2.8,8.7-2.5.4,0,.8.2,1.1.3-.4.1-.7.3-1.1.4-1.4.4-3.1-.5-4.3.9-.9,0-1.8.1-2,1.1-.1.6.8.5,1.2.7,0,1.8-2.1,1.3-2.6,2.5h0c-1.5.4-2.4-.6-3.3-1.6-.1-.1-.2-.2-.3-.3.2-.6.2-1.3.9-1.5Z"/><path class="cls-103" d="m75.1,608.4c-.6-1.6.3-3.2-.8-5-.5-.8.4-2.3-1.7-1.3-1,.5-2.2.7-2.9-.7.9-.2,1.9-.5,2.8-.7,3.1-.7,3.1-.7,3.1,2.5,0,1,.6,1.5,1.1,2.2q1.7,2.6-1.6,2.9Z"/><path class="cls-63" d="m209.4,378.4c1.1.5,2.2,1,3.3,1.5,2.1,2.7,5.1,2.9,8.1,3.1,1.2,0,2.2.2,1.9,1.8-.4.3-1.1,1-1.3.9-4.1-2-8.8-2.9-12-6.5-.1-.1,0-.5,0-.8Z"/><path class="cls-122" d="m55.3,373.3c.2-.6.6-1,1.2-1.2,1.7,1.2,3,.9,4.3-.7,1.1-1.4,2.5-2.3,4.4-1.8,1,.3,2.8-.2,3,.8.2,1.3-1.4,1.8-2.6,2-.2,0-.3.1-.5.2-.1-.1-.3-.2-.4-.3-.2-.5.3-1.5-.9-1.5-.2,0-.5.2-.7.3l-7.7,2.8h0c-.3,0-.4-.2-.3-.4,0-.2.1-.3.2-.3Z"/><path class="cls-167" d="m197.4,438.1c0,.5,0,1.4.5,1.4,1.4,0,2.8-.5,4.2.8.2.2,2.2-.9,2-2.5,1.2-.4,1.5.9,2.2,1.4.2.2.4,1,.2,1.1-1.1.6-2.9,0-3.2,2.1,0,.3-1,0-1.4-.4-1.8-1.9-4-1.3-6.2-1,0-.4-.1-.8-.2-1.2.5-.7.9-1.4,1.8-1.7Z"/><path class="cls-46" d="m315.6,633.6c-4.8.8-9.9.6-14.2,3.4-1,.6-1.8.8-1.8-.8,3.8-2.8,8.3-2.9,12.6-3.6,1.2,0,2.8-1.3,3.4,1Z"/><path class="cls-174" d="m209.9,475.5c-.2.3-.5.6-.7.8-3.2-5-6.9-9.7-9.5-15.1.1-.1.3-.2.4-.4,2.8,4,5.6,8,8.3,12,.5.7.8,1.5,1.7,1.7h0c.2.2.3.4.2.6-.1.2-.2.3-.3.3Z"/><path class="cls-241" d="m201.6,380.7c0,.5,0,1,0,1.5-.3,0-.5.1-.7.3-2.5,1-5.1,1.9-6.8,4.2h0c-.5.5-.3,1.3-.8,1.7h0c-.3.2-.6.5-1,.8-.6.3-1.2.5-1.8.8,2-5.2,4.8-9.4,11.2-9.2Z"/><path class="cls-259" d="m162.5,442.7c-4.6-3-7.8-7.6-12-11-.2-.2-.7-.7,0-1,.2,0,.6,0,.8,0,.7.5,1.3,1.1,1.9,1.7,3.3,3.2,6.6,6.5,9.9,9.7.1.4,0,.6-.5.5Z"/><path class="cls-257" d="m157,454.1c5.3,2.4,10,5.5,14.4,9.3.1.4,0,.6-.5.5-4.8-3.1-9.6-6.2-14.4-9.3-.1-.4,0-.6.4-.5Z"/><path class="cls-108" d="m139.7,443.6c-4.5-2-8.2-5.2-12.2-7.9-.4-.3-1-.7-.7-1.2.4-.6,1,0,1.4.3,4,2.8,8,5.6,11.9,8.3.1.4,0,.6-.5.5Z"/><path class="cls-187" d="m227,485.6c0,.6.2,1.2,0,1.6-.5.9-.8,0-.9-.3-2-4.8-4.5-9.5-4.9-14.9h0c2.6,3.6,3.1,8,5,11.9.3.6.2,1.4,1,1.8h0Z"/><path class="cls-205" d="m78.3,363.9c-.2.5-.5.9-.7,1.4-4.8-2.8-9.7-5.2-13.7-9.2h0c3.8,1.1,6.8,3.6,10.1,5.6,1.4.8,2.7,2,4.4,2.2Z"/><path class="cls-108" d="m140.2,443c5,2.8,9.9,5.7,14.2,9.5h-.1c-2.5,0-4.1-2-6-3.2-2.9-1.8-5.7-3.8-8.5-5.8.2-.2.3-.4.5-.5Z"/><path class="cls-180" d="m285.2,445.7c.4-1.4.2-2.7-.5-4-.3-.5-.3-1.1.2-1.5.5-.4,1.1-.2,1.5.2,1.9,1.8,3.7.9,5.6,0,.6-.3,1.3-.7,1.7.3.3.8-.2,1.3-.8,1.7-.2,0-.4.1-.5.2-2.4.7-4.9,1.4-6.7,3.4-.2-.1-.3-.2-.5-.3Z"/><path class="cls-193" d="m386.7,467.1c0-.1,0-.3.1-.4.6-2,3.7-.5,3.7-2.4,0-1.3-2.8-1-3-2.9.1,0,.3-.1.4,0,2.3.7,5.8,1.4,6,3.3.1,1.8-3.6,1.4-5.5,2.2-.5.2-1.1.2-1.6.3Z"/><path class="cls-42" d="m151.9,440.5c4.5,3.1,8.8,6.4,12.7,10.2-.1.1-.3.3-.4.4-4.6-3-8.8-6.4-12.7-10.2,0-.3,0-.5.4-.4Z"/><path class="cls-261" d="m155.2,382.5q-1.1-4.3,2.7-5.9c-.9,2,2.4.9,1.8,2.2-.6,1.3-1.9,2.3-3,3.3-.3.3-1,.3-1.5.4Z"/><path class="cls-51" d="m90.1,405.3c-.6-.8-1.4-1.5-1.7-2.3-.4-1.2-2.9-.6-2-2.4.8-1.6,4.3-2.6,6.1-2.1-.3.4-.6,1-1,1.3q-3,2.3.1,4.8c0,1.4-.7,1.3-1.6.7Z"/><path class="cls-144" d="m248.2,559.1c-.9-2.1-3.2-3.6-2.6-6.3.3,0,.6,0,.9.2.4.3.6.7.7,1.2.1,2,1.8,3,2.7,4.5,1.1,1.7,2.3,3.4,2.6,5.6.4.9,0,1-.8.9-1.1-2-1.7-4.4-3.4-6Z"/><path class="cls-209" d="m102.8,403.5c4,2.8,8.5,4.8,11.8,8.5h0c-4.6-1.5-8.1-4.6-11.9-7.4-.3-.4-.3-.8,0-1.1Z"/><path class="cls-199" d="m169.4,617.5c.9.7,1,1.3-.2,1.7-1,.3-2.1,0-3.2.7-2.9,1.9-4,4.4-3.1,7.7-.3.4-.7.4-1.1.1h0c-.5-1.7-.6-3.4,0-5.1,0-.3.2-.6.2-.9.1-.3.3-.5.6-.7h0c.2-.3.5-.6.7-.8,1.6-1.7,3.6-2.6,5.9-2.7Z"/><path class="cls-252" d="m292.9,637.4c-.3,3.1-2.7,5.1-4.3,7.5-.2.4-.7.5-1.1.2,0,0,.1-.4.2-.7.2-.6,1.3-1.2.4-1.7-.4-.2-1.4.7-2.1,1-.4.4-.9.4-1.3,0,2.2-2.7,6.2-3.2,8.1-6.4Z"/><path class="cls-44" d="m167,405.2c2,.3,3.9,1.3,6,.9.3,0,.8-.2.9.3,0,.2-.3.4-.5.6-.2.2-.5.3-.7.4q-4.2,2.9-5.9-1.4c-.3-.2-.3-.4-.2-.6,0-.2.2-.3.3-.3Z"/><path class="cls-32" d="m58,356.3c-.7-.3-.7-.7-.4-1.3.2-.3.5-.8,0-1-.1,0-.4.2-.7.3-.8.4-1,2.3-2.4,1,1.3-2.1,3-3.7,5.8-3.2.5,0,1.2-.3,1.4.4.2.7-.6.8-.9,1.3-.7,1.1-1.6,1.8-2.7,2.5Z"/><path class="cls-293" d="m77.4,401.1v1.4c-3.5.4-5.2,2.5-5.9,5.7,0,.4-.4.9-.8.8-.9-.1-.4-.7-.4-1.2.9-4.7,2.5-6.2,7.1-6.7Z"/><path class="cls-78" d="m198.1,405.2c-.5.4-1.1.8-1.6,1.2-.4-.4-1-.7-1.1-1.2-.3-1.3-2.3-1.9-1.6-3.1.5-.9,2.1,0,3.1-.2.4,0,.8,0,1.2-.1,1.1-.1,2.7-1.5,3.1,0,.3,1.1-1.8.6-2.7.9-.8.2-2,0-2.2.9-.2,1.1,1.9.2,1.8,1.6Z"/><path class="cls-111" d="m292,589.7c4,2.7,7,6.5,10.2,10.2-4.3-2.5-7.7-5.9-10.2-10.2Z"/><path class="cls-256" d="m86.7,371.4c4.8,1.2,8,5,11.9,7.6-.2.4-.5.6-.8.7-3.8-2.6-7.7-5.1-11-8.3h0Z"/><path class="cls-155" d="m291.2,448.3c-.2.8.2,1.9-.5,2.3-.7.4-1.2-.4-1.5-1-.9-1.4-1.9-1.3-3.2-.6-.7.4-1.8.8-2.3.1-.8-.9.2-1.7.7-2.5.2-.3.6-.6.9-.9,0,0,.1.2.1.2,1.9.8,4.1.2,5.9,1.4.2.2.3.4.2.6,0,.2-.2.3-.2.3Z"/><path class="cls-101" d="m209.3,387.4c3.6-1.3,4.2-1.3,9.3,0,.3.2.7.5,1,.7.6.5,1,1.1.6,1.7-.5.7-1.5.6-1.8,0-2.4-3.4-5.9-2.1-9-2.5Z"/><path class="cls-33" d="m125.5,370.6c-3.1-2-2.9,1.5-4.3,2.5-.1-.2-.3-.5-.4-.7-.9-1-2-2.2-1.4-3.5.6-1.3,3.6-1.1,5.3.2.4.3.6.9.8,1.4Z"/><path class="cls-30" d="m208.4,413.7c.8.3,1.3,1.6,2.4.4.8-.8.4-1.4-.2-2-.4-.4,0-.7.3-.9.1,0,.3,0,.4.1.9.8,3.1.7,2.7,2.5-.4,1.6-2.2,2.8-3.5,3.1-1.7.4-1.9-1.7-2.1-3.2Z"/><path class="cls-76" d="m260.6,623.3c-.5-.5-1-1-1.4-1.5.4-.3.8-.3,1.2,0,3.5,2.6,7.1,5.2,8.9,9.5-3.3-2.1-5.3-5.8-8.6-7.8Z"/><path class="cls-191" d="m174.2,442.5c-2.7-2.8-5.5-5.5-8.2-8.3-.4-.4-.8-.9-.3-1.4.1-.1.8,0,1,.3,2.5,3.1,6,5.4,8,9,.2.4,0,.6-.4.4Z"/><path class="cls-128" d="m287,565.7c0-.9.2-1.8,1-2.1,2.4-.8,3.7-3.1,5.8-4.4-.3,4.2-3.3,5.6-6.8,6.5Z"/><path class="cls-158" d="m177.8,456.1c-4.1-2.3-6.9-5.9-10.1-9.2.1-.1.2-.2.3-.3,4.2,2.2,6.8,6.1,10,9.3l-.2.2Z"/><path class="cls-152" d="m103.5,375.8c-3.8-1.9-6.6-5.1-10.1-7.3-.3-.2-.7-.6-.4-1,.3-.4.8-.2,1.1,0,3.3,2.6,7,4.6,9.6,8l-.2.2Z"/><path class="cls-169" d="m197.4,410.3c-2.7-.6-3,1.7-4,3.3-2.5-3.1-2-4.8,2.2-6.5.3,0,.7,0,1,0,0,0,0,0,0,0-.2,1.2.3,2.3.8,3.4Z"/><path class="cls-102" d="m336,639c-2.7-1.8-6.2-2-8.5-4.5,4,.5,7.7,2.2,11.2,4.1-.4.2-.8.4-.9.9-.3,0-.5,0-.8,0-.3-.2-.6-.4-.9-.6Z"/><path class="cls-217" d="m315.6,633.6c-.9-1.2-2.3-.4-3.4-1,4.2-1.6,8.3-.1,12.4.7.2,0,.3.7.5,1.1-3.1-1.1-6.3-.7-9.5-.9Z"/><path class="cls-209" d="m114.6,412c3.8,1.1,6.1,4.3,9.2,6.4.3.2.7.6.4,1-.3.4-.8.2-1.1,0-2.9-2.4-6.4-4-8.6-7.2h0Z"/><path class="cls-200" d="m178,452.6c-3.1-2-5.2-5-7.8-7.5-.4-.3-.9-.8-.3-1.4,0,0,.6,0,.7.2,2.4,3,6.2,4.9,7.4,8.9h0Z"/><path class="cls-232" d="m156.9,581.2c-.5,0-1.1,0-1.6-.3-1-.4-1.6-.6-1.1.9.7,2.3,1,4.5-.7,6.5-.1-2.3.4-4.7-.6-7-.3-.7-.6-1.8,0-2.4.7-.6,1.6.3,2.3.7.7.4,1.5.7,1.7,1.7Z"/><path class="cls-28" d="m299.6,636.2c.4.7,1,.8,1.8.8,1.4,0,2.7,0,4.1,0,.8-.2,1.7-.8,1.6.8-4.7,1.4-9.2-1-13.8-.7.5-.3.9-.7,1.4-1,.2-.2.4-.3.6-.4,1.6-.9,2.9.8,4.4.6Z"/><path class="cls-159" d="m154.3,411.4c0,1.8-2.3,1.7-2.6,3.3-1.3.5-1.7,0-1.8-1.3,0-1.3,0-2.8-.8-4,.8-1.8,1.8-.8,2.7-.2.3,1.4,2,1.1,2.5,2.1Z"/><path class="cls-97" d="m279.7,549.2c-.4,1.9,1.5,2.2,2.2,3.3-.7.4,0,1.9-1.5,1.7-.3-.4-.7-.8-1-1.3-.9-1.8-1.9-1.9-3.3-.4-.4.5-.8,1.7-1.9.8,1.4-1.9,2.7-3.9,5.4-4.1Z"/><path class="cls-115" d="m141.4,416.5c-3.5-2.4-6.4-5.4-9.2-8.5.1-.1.2-.3.4-.4,3.7,2.2,6.3,5.5,9.4,8.4,0,.4,0,.6-.5.5Z"/><path class="cls-120" d="m155.1,420.4c1.5.9,3.1,1.8,4.6,2.8,1.4,1,2.7,2.1,2.4,4.1-.4.8-.5,1.5.2,2.2.3.3.2.8-.3.8-.2,0-.6-.3-.6-.4.3-4.2-2.7-6-5.6-7.8-.6-.4-.8-1.1-.7-1.8Z"/><path class="cls-204" d="m44.4,350.2c.4-1.1,1.7-1.4,1.9-2.6.7.4,1.4.8,2.1,1.3,1.9,1.5.3,2.6-.5,3.5-1.3,1.5-1.6-.4-2.2-1-.4-.4-.8-.8-1.2-1.1Z"/><path class="cls-114" d="m188.1,474.6c0,.3,0,.6,0,.9-3.7-1.8-7.3-3.7-10.2-6.6,0-.1.2-.2.3-.3,3,1,5.2,3.5,8.3,4.4.2,0,.3,0,.5.1.6.3,1.1.8,1.2,1.5Z"/><path class="cls-206" d="m51.3,381.7c-.5-.4-1.1-.8-1.6-1.3-.6-.6-.8-1.1.3-1.5,1.8-.5,3.5-1,5.4-.5,0,.2,0,.4,0,.7-1.6.5-2.2,2.6-4.1,2.6Z"/><path class="cls-88" d="m62.3,362.9c3.6,1.2,6.2,3.9,9.1,6.1.2.7,0,1.1-.8.7-2.9-2.2-6.3-3.7-8.5-6.7l.2-.2Z"/><path class="cls-164" d="m310.5,594c-3.4-1.4-6.2-3.7-9.1-5.9,0-.4.3-.7.7-.8,3.1,1.9,6.4,3.6,8.4,6.8Z"/><path class="cls-27" d="m125.6,438.2c-.4-.4-1-.6-1.2-1.1-1-2.7-.8-5.5-.5-8.3,1.1,1.1,2,2.6,1.4,4.1-.9,1.9.9,3.5.3,5.3Z"/><path class="cls-197" d="m142.3,389.2c-2.9-1.9-5-4.8-7.4-7.2-.2-.2-.6-.6-.2-1,.3-.3.8-.2,1.1.2,2.2,2.7,5.2,4.6,6.9,7.8l-.2.3Z"/><path class="cls-116" d="m269.2,563.4c-.3-.3-.6-.5-.9-.8-1-.7-3-.4-2.5-2.6.5,0,.7-.3.8-.8,2.6,2.1,2.4-.9,3.4-1.8.2,1.9.4,3.7.4,5.6,0,.1-1-.4-1.3.4Z"/><path class="cls-85" d="m162.7,370.6c0,.7.1,1.5-.9,1.8-1.2-1.3-1.3-3.4-.3-4,1.4-.8,3.5-.6,4.7,1.3,0,.4-.1.8-.2,1.2-1.1.5-2.1-.9-3.3-.2Z"/><path class="cls-92" d="m34.5,330.1c.4,0,1.1,0,1.1.2,1,2.6,2.9,3.4,5.5,3.1.3,0,.6.5.9.7-4.5,1.6-5.7.9-7.5-4.1Z"/><path class="cls-256" d="m95.9,386.7c0,.5-.4.7-.8.8-2.7-2.5-6.2-3.8-8.7-6.6.1-.1.2-.3.4-.4,3.4,1.6,6.2,4,9.1,6.3Z"/><path class="cls-232" d="m159.4,589.7c-.6-2.9,2.3-3.9,3.4-5.9,0,.7,0,1.4.5,1.9,1.8,1.7,1.4,2.6-1,2.2-1.6-.2-1.9,1.2-2.9,1.8Z"/><path class="cls-140" d="m163.7,421.3c-.4,1-1,.8-1.4,0-.8-2-1.5-3.6-3.9-4.6-1.6-.7.2-1.2,1-1.5,2.1,1.5,3.8,3.3,4.2,6.1Z"/><path class="cls-84" d="m285,579.7c-2.1-2.9-3.9-6.1-6.4-8.7h0c3.7,0,6,2.4,7.2,7.8,0,.4-.4.8-.8.9Z"/><path class="cls-41" d="m90.1,405.3c.6,0,1.2,0,1.6-.7.8,0,1.7-.2,2.5-.2.7,0,2-.2.7,1.2-.4.4-.8.8-1,1.3-.5.8-.5,2.4-1.6,2.1-1.6-.5.2-1.6,0-2.3-.3-.9-1.4-.6-2.1-.7,0-.2,0-.5,0-.7Z"/><path class="cls-195" d="m165.8,424c-.2-.5,0-.8.5-.9,1.5-.5,3.4.9,3.1,2.5-.1.8-.6,1.7-1.2,2.1-.4.2-1-.8-1.2-1.5-.2-.9-.7-1.5-1.2-2.2Z"/><path class="cls-133" d="m302.1,587.2c0,.5-.3.7-.7.8-1.6-.9-3.3-1.8-4.9-2.7-1.4-.8-3.3-.8-3.9-2.8,0-.4.1-.7.5-.8,3.2,1.4,5.9,3.8,9,5.4Z"/><path class="cls-142" d="m93.5,396.9c-2-1.3-4-.8-6.1-.3-.4,0-.7-.3-.8-.7,0-.2.2-.4.3-.6,1.9-1,3.8-.5,5.8-.3.4,0,.8.1,1.2.3.8.3,2.5,0,2.4,1-.2,1.2-1.8.5-2.8.7Z"/><path class="cls-178" d="m162.8,583.8c-.1-1.1-.3-1.9-1.8-1.3-1.7.7-3.3.9-4.1-1.3,1.6.3,3.1.8,4.8,0,.9-.4,2.4-1.2,3,0,.6,1.3-.7,2.1-1.9,2.6Z"/><path class="cls-72" d="m200.7,410.3c2.7-.4,6,.9,6.8,2.6-1.8.2-3.4-.8-5.1-.9-.2-.4-.5-.6-.9-.8-.3-.3-.6-.6-.8-.9Z"/><path class="cls-212" d="m184.6,439.3c-2.5-2.7-5.2-5.3-6.8-8.6.1,0,.2-.2.3-.3,2.9,2.3,5,5.4,6.9,8.5-.2,0-.3.2-.4.4Z"/><path class="cls-182" d="m157.7,431.5c3.5.8,4.8,4.1,7.3,6.1.3.3.5.8,0,1.1-.2.1-.8-.1-1-.4-2-2.4-4.6-4.1-6.3-6.8h0Z"/><path class="cls-269" d="m152.1,399.1c2.2,2.6,5.3,4.4,6.4,7.9h0c-2.9-2-5.2-4.4-7-7.4,0-.4.1-.6.5-.5Z"/><path class="cls-138" d="m151.9,417.1c-1.9,2.7-4.9,3-7.8,3.3,0-.3,0-.6,0-.8.3-.3.4-.8.9-.9,2.4.2,4.3-.8,6-2.4.8-.2,1.1,0,.9.9Z"/><path class="cls-105" d="m280.1,566.6c-.3-.2-.5-.5-.8-.7.5-.5,1.1-1,1.6-1.5.6-.7,1.2-.7,1.8-.1.8,2.2,2.7,1.4,4.2,1.6,0,2-1.4,1.8-2.6,1.3-1.4-.5-2.7-1.5-4.2-.6Z"/><path class="cls-196" d="m135.2,418.1c0,.6-.5.7-.8.4-1.9-1.4-4-2.6-5.5-4.5-.2-.3-.8-.6-.1-1,.2-.1.6,0,.8,0,1.7,1.4,3.5,2.8,5.2,4.2.2.2.3.4.5.7Z"/><path class="cls-148" d="m264.1,533.6c1.2-.9,2.4-1.1,3.5.2.5,2.1-.6,3.2-2.5,3.9-.4,0-.7,0-1.1-.2-.6-.4-1.1-1-1.6-1.6-.2-.3-.3-.7-.2-1,.2-1,1.9,0,1.8-1.3Z"/><path class="cls-165" d="m78.4,374.6c3.1,1.5,6,3.3,8.5,5.8,0,.2-.2.3-.4.4-3-1.7-6-3.4-8.4-6l.3-.3Z"/><path class="cls-255" d="m243.8,653.3c-.5.1-1.7-.5-1.1.8.8,1.8-.3,2.5-1.4,3.3,0-1.2.3-2.4-.3-3.6-.4-.7-1.1-1.5-.3-2.2.8-.7,1.7,0,2.5.5.2.1.5.3.7.5.2.2.3.4.2.5,0,.2-.2.2-.2.2Z"/><path class="cls-153" d="m107,378.2c3.4,1.2,5.4,4.2,7.7,6.7l-.2.3c-3.2-1.6-5.4-4.2-7.5-6.9h0Z"/><path class="cls-123" d="m195.6,407q-3.7,2.8-2.2,6.5l-1.3.2c-.7-.8-.6-1.8-.7-2.7-.3-3.4.4-4,4.2-4Z"/><path class="cls-224" d="m165.1,456.3c-2.8-1.4-5.4-3-7.6-5.2-.1-.4,0-.6.4-.5,2.7,1.5,5.5,2.8,7.7,5.1-.2.1-.4.3-.5.5Z"/><path class="cls-272" d="m172,379.7c0,.6,0,1.2,0,1.9-.5.7-.2,2.3-1.4,2.1-1.1-.2-1.6-1.4-1.8-2.5-.2-1.6,1.1-1.1,2-1.3.4,0,.8-.1,1.2-.2Z"/><path class="cls-185" d="m529.7,496.8c.3.4.6.9.9,1.3,2,2.2,2.1,3.4.1,5.6,0,0-.2,0-.3-.1-.1,0-.2-.2-.2-.3,1.2-1.9.8-3.4-1.1-4.8-1-.8-1.5-1.8.6-1.6Z"/><path class="cls-232" d="m153.5,588.6c2.2-.9,4.3-1.1,5.9,1.1.2,1.2-.4,2.4-1.3,1-1.4-2-2.4-1.7-3.8-.5-.5.4-1.1.4-1.3-.2-.1-.4.3-1,.5-1.5Z"/><path class="cls-117" d="m264.2,537.2c2-.3,2.6-2,3.4-3.4,1.2.4,2,.9,1.1,2.4-.9,1.4-2.1,2.1-3.6,2.6-.6-.4-1.3-.7-.9-1.6Z"/><path class="cls-180" d="m291.2,448.3c0-.3,0-.5,0-.8-.2-1,1.5-1.7.2-3.1-.9-.9,0-2,1.5-2h0c-.2,1.3.8,2,1.5,2.7,1.5,1.4,1.5,2.4-.9,2.4-.9,0-1.6.4-2.3.7Z"/><path class="cls-238" d="m67.3,598.9c1,3.6-1.5,4.8-4.2,5.8-1.2.7-1.8-.4-2.6-.8.2-.4.4-.8.9-.7,3.1,0,5.1-1.3,5.9-4.3Z"/><path class="cls-213" d="m140,431.1c2.8,1.7,5.5,3.6,7.7,6.1-.1.1-.3.3-.4.4-2.9-1.6-5.4-3.6-7.8-6,.1-.2.3-.4.5-.5Z"/><path class="cls-203" d="m546.3,499.1c-.7-1.2-1.9-.7-2.9-.8-1.5-.1-2.9-.5-3.9-1.7,2.6-.3,5.1.9,7.6.9.6,0,1,.4.6,1.1-.3.6-.9.5-1.5.5Z"/><path class="cls-210" d="m210.6,395.5c0,.5,0,1-.5,1.1-.7.1-1-.3-1-1,0-1.7-.2-3.3-.7-5-.2-.5-.4-1.6.5-1.6.8,0,1,.9,1,1.6.2,1.7-.2,3.4.6,5Z"/><path class="cls-134" d="m146.7,424.7c1.8-.6,2.6-3.6,5.2-2.4-1.4,1.8-3,3.2-5,4.2-1.2.6-.9-.5-1-1h0c.3-.2.6-.5.9-.8h0Z"/><path class="cls-115" d="m151.5,399.6c-1.7-1.8-3.5-3.6-5.2-5.5-.2-.3-.5-.9-.4-1.1.5-.8,1,0,1.3.3,1.7,1.8,3.6,3.5,4.8,5.7-.2.1-.4.3-.5.5Z"/><path class="cls-117" d="m259.9,534.7c.9.1.8,1.2,1.5,1.5,1.1.5,2.3,1,2,2.6-2.1-.7-3.4.8-4.9,1.8h-.2c-.5-2.4.5-4.2,1.6-6Z"/><path class="cls-173" d="m414.6,350.9c2.7.2,3.3,2.6,4.5,4.4-.3.8-1.4,1.2-1.5.7-.4-2.1-1.5-3.2-3.4-3.8-.5-.2,0-.9.5-1.3Z"/><path class="cls-225" d="m271.7,653.9c-.9,0-1.5-.3-1.6-1.1-.1-1.3.7-2,1.9-2.2.8-.2,1.3.3,1.4,1.1.1,1.3-.6,2-1.7,2.2Z"/><path class="cls-216" d="m168.5,370.4c.6-.8,1.1-1.7,1.8-2.3.6-.5,1.5-1.3,2.1-.4.5.7.2,1.6-.7,2.1-.7.3-1.1.8-1.4,1.5-.6-.3-1.2-.6-1.8-1Z"/><path class="cls-172" d="m184,453.4c2.2,1.3,3.6,3.5,5.4,5.2.2.2.4.8.3,1.1-.3.7-.8.2-.9,0-1.6-2.1-4.2-3.3-4.8-6.1h.1Z"/><path class="cls-35" d="m151.9,417.1c-.1-.4-.4-.8-.9-.9-2.6-1.7-1.5-4.5-1.9-6.8,1.3,1,2,2.3,1.5,4-.3,1,.5,1.1,1.1,1.3.3.8,1.5,1.5.1,2.4Z"/><path class="cls-181" d="m382.2,470.5c1.4,0,3-1.3,4.5-3.5.2.8-.1,1.6-.4,2.4q-1.2,3.9-4.2,1.1Z"/><path class="cls-100" d="m251.6,565.1c.3-.3.6-.6.8-.9,1.6,2.5,2.7,5.2,3.2,8.1-2.2-1.9-2.9-4.7-4.1-7.2Z"/><path class="cls-56" d="m183.3,465c2.2,1.8,4.8,3,6.4,5.4h0c-2.9-.8-4.9-3-7.1-4.8.2-.2.4-.4.6-.6Z"/><path class="cls-95" d="m97.7,379.7c.3-.2.6-.5.8-.7,2.3,1.3,4.3,2.9,6,5l-.3.3c-2.6-1-4.4-3-6.6-4.5Z"/><path class="cls-248" d="m154,448.6c-2.5-1.3-4.7-3.1-6.7-5.1.1-.1.2-.2.3-.4,2.6,1.2,4.8,3,6.8,5,.1.4,0,.6-.4.5Z"/><path class="cls-239" d="m69,610.4c.4-1.5,1.3-1.6,2.4-.9,1,.7,1.9,1.4,3.1,1.8.5,1.5.2,2.2-1.4,1.2-1.3-.8-2-2.7-4.1-2.1Z"/><path class="cls-201" d="m173.1,423.7c2,2,3.8,4.1,5,6.7,0,.2-.2.3-.3.3-2.2-1.8-3.9-4.1-5.1-6.6.1-.1.3-.2.4-.4Z"/><path class="cls-126" d="m52.7,359.6c2.1-1,2.8,1.4,4.3,1.7.7.7.8,1.4-.2,2-.5.3-1.2.3-1.3-.4-.1-1.8-2.5-1.7-2.8-3.3Z"/><path class="cls-161" d="m137.4,428.1c-.3.6-.6,1.2-.9,1.9,0,.1-.1.3-.2.4-1.4-1.9-2.7-3.8-4.1-5.7h0c1.7,1.2,3.4,2.3,5.2,3.5Z"/><path class="cls-121" d="m41.1,349.4c-.6.5-1.4.8-1.7,1.7-1.1.7-1.5,3.1-3,2.2-.6-.3,1.2-2.4,2.2-3.5.7-.7,1.4-1.3,2.5-1.3.3.2.3.4.3.6,0,.2-.2.3-.2.3Z"/><path class="cls-192" d="m102.8,403.5c0,.4,0,.7,0,1.1-2.3-1-4.2-2.5-6-4.2.1-.1.2-.3.3-.4,2.3.6,4,2,5.8,3.5Z"/><path class="cls-156" d="m378.3,467.8c.9.5.9,1.3.6,2.1-.7,1.8.8,1.2,1.5,1.3-.9.8-2.2,1.9-3.1,1.3-1.3-.8.5-2.1.4-3.3,0-.5.4-1,.7-1.5Z"/><path class="cls-294" d="m279.4,569.4c3.2.2,4.9,2.3,6.1,4.9-.1.1-.3.3-.4.4-2.4-1.2-4.3-3-5.7-5.3h0Z"/><path class="cls-190" d="m114.7,384.8c2.5,1,4.2,3,5.8,5.2h0c-2.8-.7-4.3-2.9-6-4.9l.2-.3Z"/><path class="cls-249" d="m141.9,410.3c2.2.6,3.2,2.7,4.8,3.9.3.2.7.6.3,1-.3.3-.8.1-1.1-.2-1.5-1.4-3.4-2.5-4.4-4.5l.3-.2Z"/><path class="cls-39" d="m212.6,379.9c-.4-2.2,2-1.4,2.6-2.5.8,0,1.9-.1,1.2,1.2-.8,1.5-2.3,1.7-3.8,1.2Z"/><path class="cls-254" d="m60.4,604c1-.2,1.8.5,2.6.8.9.6,1.8,1.1,2.6,1.7.8.6.8,1.3,0,1.9-1.3-2-4.1-2.1-5.2-4.4Z"/><path class="cls-47" d="m384.3,458.4c.5.7,0,.9-.6,1.1-1.7.5-2.4,1.7-2.1,3.4-.6.5-1.2.5-1.8,0,.1-1.5.1-3.2,2.1-3.7,0,0,.2-.1.2-.1.7-.2,1.4-.4,2.1-.6Z"/><path class="cls-244" d="m196.6,463.6c0,.4,0,.9,0,1.3-1.4-1.5-2.9-3-4.3-4.5-.3-.4-.9-.9-.5-1.4.5-.5.9.2,1.2.5,1.2,1.3,2.4,2.7,3.6,4.1Z"/><path class="cls-129" d="m117.1,422.9c-1.2-.2-1.5,1.1-2.4,1.6-.3-1.6.2-3,.7-4.5.2-.6.5-1.2,1.1-.9.8.3.9.9.3,1.6-.8.8.3,1.5.3,2.3Z"/><path class="cls-127" d="m130.7,421.3c-1.8-.5-3.7-1-4.9,1.1-.4.7-1.1.7-1.8.6.7-1.3,1.5-2.6,2.9-3.3,1.6-.7,3.1-.4,3.8,1.5Z"/><path class="cls-31" d="m41.1,349.4c0-.3,0-.6,0-.9.8-1-.1-1.8-.3-2.7-.3-1.1-.7-2.3,1.2-2.3.2,1,0,2.1.6,3.1.8,1.4-.1,2.3-1.5,2.7Z"/><path class="cls-156" d="m379.9,462.8c.6,0,1.2,0,1.8,0q-2.5,1.4-3.3,4.3-2.6-3,1.5-4.3Z"/><path class="cls-65" d="m161.8,407.7c-.4,2.3-1.9,4.1-3.4,5.7-.6.6-.8-.1-1-.6,1.6-1.6,2-4.2,4.4-5.1Z"/><path class="cls-162" d="m95.9,504.9c-1-1.4-3.7,0-4.1-2.4,1.6.3,3.3.5,4.9.9.6.1,1,.5.7,1.2-.3.6-.9.5-1.4.4Z"/><path class="cls-69" d="m213,408.1c.8,0,1.8.2,1.6,1.3-.1.6.8,1.8-.7,1.8-1.1,0-1.4-.7-1.4-1.6,0-.6-.5-1.4.6-1.5Z"/><path class="cls-118" d="m253.2,379c-.4,1.1-.5,1.9,1.1,1.7,1.2,0,2.3,0,2.3,1.6-1.1-.8-2.3-.7-3.6-.7-.8,0-2-.6-2-1.3,0-1.1,1.1-1.5,2.2-1.4Z"/><path class="cls-136" d="m61.4,376.2c.5-1.8,1.9-2.9,3.4-3.9h0c.3.2.6.5.7.9.1.2.1.5,0,.7-.2.3-.4.6-.6.9-1.1.6-2.1,1.3-3.4,1.5Z"/><path class="cls-214" d="m50.4,348c.5,0,4.7,2.8,4.8,3.2.2.6-.4.7-.7.6-1.6-.8-3.2-1.7-4.4-3-.4-.4-.1-.7.3-.8Z"/><path class="cls-179" d="m186.6,452.5c.1,0,.3.1.4.2,1.3,1.4,3.1,2.5,3.6,4.5,0,0-.2.3-.2.3-1.7-1.3-3.3-2.6-4-4.7l.3-.3Z"/><path class="cls-40" d="m118.9,435c2.6.6,3.6,2.2,3.3,4.8-1.2-1.5-2.6-2.9-3.3-4.8Z"/><path class="cls-220" d="m179.9,448.2c1.5,1.6,3.5,2.8,4,5.2h-.1c-1.8-1.2-3.5-2.6-4.4-4.8-.1-.4,0-.6.5-.4Z"/><path class="cls-202" d="m91.8,502.5c-1.6-1.3-2.9-1.7-2.7,1.2-1.2-1.4-1.2-3.4.1-3.9,1.5-.6,2.3,1.2,2.5,2.7Z"/><path class="cls-208" d="m186.3,452.7c-.1,0-.3,0-.4-.2-1.3-1.4-3-2.4-3.5-4.4,0,0,.2-.3.2-.3,1.6,1.3,3.3,2.5,3.9,4.7l-.3.3Z"/><path class="cls-229" d="m196.1,475.5c2.4.5,4.5,1.3,4.7,4.3-1.6-1.4-3.1-2.8-4.7-4.3Z"/><path class="cls-234" d="m161.9,627.8c.4,0,.7,0,1.1-.1.9.9,1.5,2.2,2.7,2.9.3.2.4.7,0,.9-.3.1-.8,0-1.2-.2-1.2-.9-2.4-1.8-2.6-3.5Z"/><path class="cls-96" d="m179.5,448.7c-1.5-1.6-3.5-2.9-4.1-5.2l.2-.2c1.8,1.3,3.4,2.8,4.4,4.9-.2,0-.3.2-.5.4Z"/><path class="cls-113" d="m255.7,628.5l-.9-.9c1-1.1,2-2.2,3-3.2.4-.4,1-1.1,1.6-.1-1.3,1.4-1.9,3.3-3.6,4.2Z"/><path class="cls-211" d="m163,442.2c2.1,1,3.5,2.8,5,4.4-.2,0-.3.2-.3.3-2.2-.8-3.6-2.6-5.2-4.2.2-.2.3-.3.5-.5Z"/><path class="cls-139" d="m55.9,379.1c2.1.4,2.9,2.5,4.6,3.4.5.6.5,1.1,0,1.7h0c-1.7-1.6-4.2-2.3-4.6-5.1Z"/><path class="cls-233" d="m172.7,424c-1.6-1.5-3.4-2.9-4.1-5.2l.3-.2c1.7,1.4,3.4,2.8,4.2,5-.1.1-.3.2-.4.4Z"/><path class="cls-145" d="m210.8,403.7c0-.5,0-1.4.5-1.2,1.2.4,1.1,1.7,1.2,2.8,0,.5,0,1.4-.7,1.2-1.6-.4-.7-1.8-1-2.8Z"/><path class="cls-25" d="m285.5,574.2c1.3,1.5,2.7,3,4,4.5.2.8-.3,1-1,1-1.9-1.2-3.9-2.4-3.4-5.1.1-.1.3-.2.4-.4Z"/><path class="cls-13" d="m264.3,683.5c1.7-1.7,0-4.2,1.5-5.9,0,1.7,0,3.3,0,5,0,1.1-.4,1.9-1.6,1.9v-.9Z"/><path class="cls-245" d="m103.5,429.7c.8,1,.9,2.2.9,3.5-1,.2-2-.2-2.4-1-.5-1.2.7-1.8,1.5-2.4Z"/><path class="cls-253" d="m315,605.7c-.3,1.3.6,2.9-.9,4,.3-2-1.7-4-.1-6,.6.5.9,1.2,1,2Z"/><path class="cls-264" d="m127.1,438.6c1.2.4,1.7,1.3,1.8,2.4,0,.6-.2,1.8-.4,1.6-.8-.8-1.3-2-1.8-3-.2-.4,0-.8.4-1Z"/><path class="cls-249" d="m86.7,394.2c-2.1-.5-3.8-1.6-5.1-3.4h0c2.2.4,4,1.3,5,3.4h0Z"/><path class="cls-131" d="m211.8,401c0-.6-1.1-1.2,0-1.7.1,0,.3,0,.4,0,.9.6,2.2.3,3,1.2-1.1.7-2.2.8-3.4.5Z"/><path class="cls-83" d="m147.7,437.2c1.8.6,3,1.9,4.2,3.3,0,.2-.2.3-.4.4-1.7-.7-3.1-1.9-4.2-3.4.1-.1.3-.3.4-.4Z"/><path class="cls-189" d="m179.6,444.3c-.1,0-.3,0-.4-.2-1.1-1-2.3-2-2.8-3.5,0,0,.4-.4.5-.4,1.2,1.1,2.7,2,2.9,3.8l-.2.2Z"/><path class="cls-133" d="m288.7,579.5c.5,0,.7-.4.8-.8,1.2,1,2.4,2.1,3.6,3.1-.2.2-.3.4-.5.6-2.1.1-3.7-.4-3.9-2.8Z"/><path class="cls-65" d="m167,405.2c0,.3,0,.6,0,.8-1.4,0-2.6.5-3.5,1.7-.5,0-1.1.4-1.6,0,1.1-2.1,2.9-2.9,5.2-2.5Z"/><path class="cls-86" d="m108,386.3c1.8.7,3,2.1,4.2,3.6l-.2.3c-1.9-.6-3.2-1.9-4.4-3.3,0-.4,0-.5.5-.5Z"/><path class="cls-188" d="m168.6,418.9c-.1,0-.3-.1-.4-.2-1-1.1-2.5-1.8-2.7-3.5,0,0,.2-.3.3-.3,1.5.9,2.6,2,3.1,3.8l-.3.2Z"/><path class="cls-206" d="m46.9,383.2c1.3-.5,2.5-2.1,4.2-.9-1.2,1.1-2.6,1.7-4.2,1.8,0,0-.2-.2-.2-.2,0-.2.2-.4.3-.6Z"/><path class="cls-235" d="m258.4,376.3c-1.8,0-2.2-2-3.6-2.5,0-.7,0-1.6,1-1,1.3.8,2.2,2,2.7,3.5Z"/><path class="cls-201" d="m70.6,369.7c.3-.2.5-.5.8-.7,1.6.6,2.6,1.8,3.4,3.3h0c-1.9,0-2.9-1.6-4.3-2.5Z"/><path class="cls-218" d="m199.1,434c-1.6.6-.2,2.6-1.5,3.3-.2-1.1-.4-2.1-.5-3.2,0-.6-.5-1.5.5-1.7.9-.1,1.2.8,1.5,1.5Z"/><path class="cls-36" d="m552.9,344.5c-1.2-.2-1.9-.9-2.4-1.9.4-.7.9-1.9,1.5-1.6,1.2.7,1.2,2.1.9,3.5Z"/><path class="cls-266" d="m35.1,324c-.2,1.5.7,3.2-.9,4.5v-.2c-.2-.2-.2-.5-.4-.7-.5-1.5-.8-3,1.3-3.6Z"/><path class="cls-66" d="m211.7,491.6c-.2-.4-.4-.7-.5-1.1-.1-.7.5-.7.8-.4,1.1.8,2.3,1.5,2.9,2.9,0,0,0,.2-.2.3-.1,0-.3.1-.4.1-.9-.6-1.7-1.2-2.6-1.8Z"/><path class="cls-230" d="m172.1,434.8c.1,0,.3,0,.4.1,1.1,1,2.4,1.8,2.8,3.4,0,0-.4.4-.5.4-1.2-1.1-2.7-2-2.8-3.8h0Z"/><path class="cls-37" d="m75,397.7c1.5-.3,2.3.8,3.1,1.6.5.6-.2.9-.7,1.1-.8-.9-1.6-1.8-2.4-2.7Z"/><path class="cls-135" d="m86.6,395.9l.8.7c-1,.5-1.5,1.4-2.2,2.2-.7.9-1,.5-1.2-.3.7-1,1.2-2.2,2.5-2.6Z"/><path class="cls-24" d="m538,494c-.9.6-1.7,1.1-2.6,1.7.1-1.3,1-2.3,1.7-3.3.5-.4,1-.6,1.4.1.2.2.2.4.1.7-.2.3-.4.6-.7.9Z"/><path class="cls-200" d="m181.3,456.1c-1.4-.9-2.5-2-3.4-3.5h0c2,.2,3.1,1.5,3.5,3.4h0Z"/><path class="cls-109" d="m145,418.7l-.9.9c-.5-1.5-2-1.9-2.8-3.1.2-.2.4-.3.5-.5,1.3.6,2.4,1.5,3.2,2.7Z"/><path class="cls-84" d="m287.7,583.9c-1.3-1.1-2-2.6-2.6-4.1.1-.1.3-.2.4-.3,2.3.1,2.7,1.8,2.9,3.6,0,.4-.3.7-.7.9Z"/><path class="cls-91" d="m123.1,442.6c1,.3,1.2,1.8,2.5,1.6,0,.3-.1.5-.2.8-.2.3-.4.6-.8.8-2.5,0-1.8-1.7-1.6-3.2Z"/><path class="cls-148" d="m263.4,538.9c-.5-1-2.1-1.2-2-2.6,0-.2.2-.5.3-.7.2-.4.4-.5.7-.2l.2.2c.5.5,1.1,1.1,1.6,1.6h0c.3.5.6,1.1.9,1.6-.6,0-1.1,0-1.7.1Z"/><path class="cls-173" d="m421.4,354.2c1.2-1.1,2.7-.3,4-.7.4,1.3,0,1.9-1.3,1.5-.9-.2-1.8-.6-2.7-.9Z"/><path class="cls-249" d="m92.7,395c-1.9,0-3.9.2-5.8.3,0-.3-.1-.7-.2-1h0c2,.4,4.2-.7,6,.8Z"/><path class="cls-114" d="m186.5,473c-.2-.3-.5-.7-.7-1-.2-.3-.7-.9-.7-1,.4-.6,1-.2,1.4,0,.6.5,1.2,1.1,1.8,1.7,0,.4-.2.6-.6.7-.5,0-1-.1-1.4-.5h0Z"/><path class="cls-154" d="m172,434.9c-1.2-.5-2-1.4-2.4-2.7,0,0,.4-.4.5-.4,1,.8,2,1.5,2,3h0Z"/><path class="cls-251" d="m177.8,468.9c-1.6-.3-2.4-1.5-3.4-2.6,0-.1.2-.2.3-.3,1.6.2,2.5,1.4,3.4,2.6-.1,0-.2.2-.3.3Z"/><path class="cls-186" d="m50.4,360.4c-.9,0-1.3,1.5-2.3,1-.5-.3-.3-1.2-.1-1.9.9,0,2-.3,2.5.9Z"/><path class="cls-94" d="m86.5,361.5l.2-1.1c1.2.3,1.6,1.3,1.8,2.4-.3.3-.6.7-.9,1-.8-.6-1.7-1.1-1.1-2.3Z"/><path class="cls-234" d="m161.9,622.7c0,1.7,0,3.4,0,5.1-1.2-1.7-1.2-3.4,0-5.1Z"/><path class="cls-183" d="m284.8,643.8h1.3c-.9,1.2-1.5,2.7-3.4,2.5.3-1.2,1.2-1.8,2.1-2.5Z"/><path class="cls-207" d="m302.2,599.8c1.8,0,2.7,1.1,3.4,2.6-1.6-.2-2.7-1.1-3.4-2.6Z"/><path class="cls-124" d="m88.2,366.4c.9.3,1.9-1.1,2.8,0-1.7,1.8-2.1,1.8-2.8,0Z"/><path class="cls-112" d="m194,472.4c-.2.9,2.4,1,.8,2.4l-2.7-2.4c-.1-.4,0-.6.4-.5.5.2,1,.3,1.5.5Z"/><path class="cls-74" d="m164.4,375.5c.9.6,1.7,1.2,2.6,1.7.7.5.4.8,0,1.1-1.2-.2-2-.8-2.7-1.8,0-.3,0-.7.1-1h0Z"/><path class="cls-170" d="m203.3,435.7c-.7,0-1.3,0-2,0,.6-1,1.5-1.7,2.6-2,1.7-.5,1,.7.9,1.4-.3.3-.7.6-1.1.6-.1,0-.3,0-.4,0Z"/><path class="cls-227" d="m157.5,451.2c-1.4-.5-2.4-1.5-3.4-2.6.2-.1.3-.3.4-.5,1.4.5,2.6,1.4,3.4,2.6-.2.1-.3.3-.4.5Z"/><path class="cls-270" d="m270,631.2c1,.5,1.8,1.2,1.7,2.5-1.2,0-1.9-.8-2.4-1.8.2-.3.4-.5.7-.7Z"/><path class="cls-179" d="m103.7,375.5c1.6.2,2.6,1.3,3.3,2.6h0c-1.8,0-2.6-1.2-3.4-2.4l.2-.2Z"/><path class="cls-53" d="m292,588.3c0,.5,0,1,0,1.5-1.6-.5-2.1-1.9-2.8-3.2.1-.1.3-.3.4-.4,1.5,0,1.9,1.1,2.3,2.2Z"/><path class="cls-95" d="m104.6,384c1.6.2,2.4,1.4,3.4,2.4-.1.2-.3.4-.5.5-1.4-.5-2.5-1.3-3.2-2.6l.3-.3Z"/><path class="cls-45" d="m272.6,555.7c1.1,0,1.7.7,1.7,1.8h0c-1,.2-2.1.4-2.6-.9.3-.3.6-.6.9-.9Z"/><path class="cls-87" d="m174.4,466.3c-1.5-.3-2.5-1.4-3.5-2.5.2-.2.3-.3.5-.5,1.4.5,2.5,1.4,3.3,2.6,0,.1-.2.2-.3.3Z"/><path class="cls-62" d="m154.3,411.4c-1.1-.5-3.4.7-2.5-2.1.8.4,1.7.7,2.5,1.1,0,.3,0,.7,0,1Z"/><path class="cls-171" d="m74.8,372.3c1.7,0,2.6,1.2,3.5,2.4l-.3.3c-1.5-.4-2.7-1.1-3.2-2.7h0Z"/><path class="cls-48" d="m276.8,653.1c.7,1.7-.7,2.1-1.7,2.6.2-1.1-.2-2.6,1.7-2.6Z"/><path class="cls-75" d="m82.6,399.3c-1.2,1.3-1.5-.2-2.1-.7-.6-.5-.2-.9.3-1.1.7.5,1.4,1,1.8,1.8Z"/><path class="cls-117" d="m262.4,535.4c-.3,0-.5,0-.7.2,0-.5,0-1.1,0-1.6.8-.1,1.6-.3,2.4-.4.4.3.8.8,0,1-.6.2-1.3.1-1.7.8Z"/><path class="cls-43" d="m173.8,379.1c-.2-.5-.6-1.1-.5-1.4.3-.6,1-.2,1.4.1.5.4,1,.8,1.5,1.3h0c-.3.3-.6.3-.9.2-.5,0-1.1,0-1.6,0Z"/><path class="cls-146" d="m129.7,379.9c2.8-1.9,1.3,1,1.8,1.6-1.2.2-1.3-1-1.8-1.6Z"/><path class="cls-265" d="m119.7,421.4c0,.3,0,.7,0,1-.6-.2-1.3.6-1.7-.3-.1-.3,0-.9.1-1.1.7-.7,1.2,0,1.6.4Z"/><path class="cls-235" d="m254.8,373.9c-.3,1.4.8,3.1-.9,4.3.2-1.4-.6-3.1.9-4.3Z"/><path class="cls-90" d="m289.3,586.5c-.8-.7-1.4-1.5-1.6-2.6h.2c1.8-.3,2.3.6,1.8,2.2-.1.2-.3.3-.4.4Z"/><path class="cls-257" d="m156.6,454.6c-1-.3-1.9-.8-2.4-1.9h.1c1.2-.1,2,.6,2.7,1.4-.1.2-.3.3-.4.5Z"/><path class="cls-168" d="m122.2,408.7c.4,0,.8,0,1.2.2.4.2,1.1.5.8,1-.4.6-.9,0-1.3-.3-.3-.3-.4-.6-.6-1h0Z"/><path class="cls-175" d="m179.8,444.1c.3.2.7.5,1,.7.4.4.9,1,.3,1.4-.6.4-.9-.4-1.1-.8-.2-.3-.2-.8-.4-1.2l.2-.2Z"/><path class="cls-114" d="m188.1,475.5c1.4,0,2.2.6,2.6,1.9-1.1-.3-2.1-.7-2.6-1.9Z"/><path class="cls-104" d="m125.6,444.2c0-.3-.1-.6-.2-.9.6-.5,1.4-1.4,1.8-.2.3,1-.8,1.1-1.6,1.1Z"/><path class="cls-114" d="m194,476.4c-1.6,1.6-1.8-.3-2.5-1,1-.2,1.7.6,2.5,1Z"/><path class="cls-192" d="m96.7,400.4c-.4-.1-.8-.2-1.2-.5-.3-.2-.8-.8-.8-.9.4-.7.9-.2,1.4,0,.3.2.6.6.9.9-.1.1-.2.3-.3.4Z"/><path class="cls-237" d="m423.8,349.8c0-1.4,0-2.5,1.9-2.2-.3,1-1,1.7-1.9,2.2Z"/><path class="cls-184" d="m69,599.8c-.6-.3-1.2-.6-1.8-.8,0-.5-.3-1.4.3-1.4,1.2,0,1.5,1.1,1.5,2.2Z"/><path class="cls-88" d="m62.1,363c-.3,0-.6,0-.8-.2-.4-.3-.8-.7-1.2-1.1.8-.8,1.2.2,1.7.4.2.1.3.4.4.7l-.2.2Z"/><path class="cls-98" d="m536.7,503.4c1.8.2,2.2,1.5,2.2,3-1-.8-1.7-1.8-2.2-3Z"/><path class="cls-112" d="m192.1,472.4c-1-.4-2-.8-2.3-2h0c1.3-.2,2,.7,2.7,1.5-.1.2-.3.3-.4.5Z"/><path class="cls-170" d="m203.9,437.4c-.7-.4-.5-1.1-.6-1.7h0c.4-.4.9-.5,1.4-.1.1.8-.4,1.3-.7,1.9Z"/><path class="cls-218" d="m201.1,435.7c-1.3.1-2.1-.4-2-1.8,1,.2,1.6.8,2,1.8Z"/><path class="cls-226" d="m46.1,346.8c.5-1.2,1.6-.5,2.5-.8-.5,1.2-1.6.7-2.5.8Z"/><path class="cls-206" d="m47.8,379c0,.9,0,1.9-.7,2.6-.3-1-.1-1.9.7-2.6Z"/><path class="cls-223" d="m243.8,653.3c0-.3,0-.5,0-.8.7.3,1.5.5,1.7,1.4-.7,0-1.4,0-1.8-.7Z"/><path class="cls-107" d="m118.8,379.8c0-.5,0-1,.5-1.2,0,0,.2.4.3.6,0,.6-.3.8-.8.7Z"/><path class="cls-103" d="m69.8,601.5c-.8-.3-1-1-.9-1.7.8.3,1,1,.9,1.7Z"/><path class="cls-187" d="m230.2,492.4c-.6-.4-.7-1-.7-1.7.8.3.9.9.7,1.7Z"/><path class="cls-161" d="m137.3,430c.6-.1,1.1-.2,1.7-.3.1.3.2.5.2.8-.1.1-.2.2-.3.3-.6-.1-1.2-.2-1.6-.8Z"/><path class="cls-203" d="m538.9,495.8c0-.6,0-1.2,0-1.7.8.6.9,1.1,0,1.7Z"/><path class="cls-215" d="m182.2,412.9c-.9-.3-.8-1-.8-1.7h0c.9.3.9,1,.9,1.7h0Z"/><path class="cls-292" d="m204.7,435.6c-.5,0-.9,0-1.4.1.3-.7.9-.8,1.5-.7,0,.2,0,.4-.2.5Z"/><path class="cls-203" d="m538.6,492.5c-.5,0-.9,0-1.4-.1.6-.9,1-.9,1.4.1Z"/><path class="cls-176" d="m175.4,379.2c.3,0,.6-.1.9-.2-.2.7-.5.8-.9.2Z"/><path class="cls-172" d="m169.5,385.8c-.1-.1-.3-.3-.4-.4,0,0,.2,0,.2,0,0,.1,0,.2.1.4h0Z"/><path class="cls-43" d="m173.6,379.8c-.8-.5-.4-.6.2-.7,0,.3,0,.5-.2.7Z"/><path class="cls-80" d="m142.5,388.9c.3.3,1,.4.4,1-.2-.2-.4-.5-.7-.7.2,0,.3-.1.2-.3Z"/><path class="cls-198" d="m112.7,391c-.4-.1-.8-.4-.8-.9l.2-.3c.5,0,.8.3.9.7-.1.1-.3.3-.4.4Z"/><path class="cls-260" d="m120.5,390c.5,0,.8.3.8.9,0,0,0,0,0,0-.5,0-.8-.3-.9-.8,0,0,0,0,0,0Z"/><path class="cls-235" d="m254,378.1c0,.6-.3.8-.9.9,0-.6.4-.8.9-.9Z"/><path class="cls-107" d="m120.4,378.9c.3-.2.6-.4,1-.7,0,.5-.4.8-1,.7Z"/><path class="cls-241" d="m190.6,389.9c-.1.6-.5.9-1.1,1,.2-.5.5-.9,1.1-1Z"/><path class="cls-198" d="m113.6,391.9c-.4-.1-.7-.4-.9-.8.1-.1.3-.3.4-.4.3.3.6.6.9.9-.1.1-.3.2-.4.4Z"/><path class="cls-114" d="m188.9,473c0,.3,0,.5,0,.8-.8.5-.9,0-1-.6.1-.1.2-.3.3-.4.2,0,.4.2.6.3Z"/><path class="cls-107" d="m121.4,378.2c0-.5.2-.9.7-.9,0,.5-.2.8-.7.9Z"/><path class="cls-150" d="m305.5,602.4c.5,0,.8.3.9.9-.5,0-.8-.3-.9-.9Z"/><path class="cls-150" d="m306.4,603.2c.5,0,.8.3.9.9-.5,0-.8-.3-.9-.9Z"/><path class="cls-114" d="m190.7,474.6c-.5-.1-.8-.4-.9-.9.5,0,.8.4.9.9Z"/><path class="cls-269" d="m158.5,407c.2,0,.4.2.6.3-.6.6-.4-.1-.5-.3h0Z"/><path class="cls-176" d="m164.3,375.6v1c-.8-.4-.8-.7,0-1Z"/><path class="cls-168" d="m121.3,407.8c.4.1.8.4.9.9h0c-.5-.1-.8-.4-.8-.9h0Z"/><path class="cls-4" d="m262.2,611.6h-.3c0,0-.3,0-.3,0,0-.2.1-.4.3-.5l.3.2v.4Z"/><path class="cls-221" d="m171.2,615.9c0,.5-.4.7-.9.8.2-.4.4-.7.9-.8Z"/><path class="cls-267" d="m140,408.3c.4.3.9.6.7,1.2h0c-.6,0-.9-.4-1.2-.8.3,0,.4-.1.4-.4Z"/><path class="cls-82" d="m64.8,374.7c0-.4.2-.7.6-.9,0,.5-.1.8-.6.9Z"/><path class="cls-236" d="m140.8,409.5c.6-.1.9.3,1.1.7-.2,0-.3,0-.3.2-.5-.2-.8-.5-.8-1h0Z"/><path class="cls-234" d="m163.6,620.3c-.2.2-.5.5-.7.7.2-.2.5-.5.7-.7Z"/><path class="cls-234" d="m162.8,621c-.2.2-.4.5-.6.7,0-.4.3-.6.6-.7Z"/><path class="cls-82" d="m65.4,373.2c-.5-.2-.8-.4-.7-1,.3,0,.6.1.9.2,0,.3,0,.6-.2.8Z"/><path class="cls-273" d="m176.1,622.5c-.3,0-.5-.2-.5-.6.3,0,.5.2.5.6Z"/><path class="cls-114" d="m191.6,475.4c-.5-.1-.8-.4-.9-.9.5,0,.9.3.9.9Z"/><path class="cls-187" d="m201.6,411.2c.5,0,.8.3.9.8-.5,0-.7-.4-.9-.8Z"/><path class="cls-263" d="m175.4,443.4c-.6,0-.9-.5-1.2-.9h.3s0-.4,0-.4c.5.3.8.6.9,1.2l-.2.2Z"/><path class="cls-216" d="m170.4,371.4c.3.2.6.5.9.7-.5,0-.8-.1-.9-.7Z"/><path class="cls-256" d="m86.7,371.4c-.2-.1-.4-.2-.6-.4.6-.4.5.1.5.4h0Z"/><path class="cls-76" d="m270,631.2c-.2.2-.5.5-.7.7-.3-.2-.3-.4-.2-.7.3,0,.6,0,.9,0Z"/><path class="cls-163" d="m124.7,445.7c.3-.3.5-.5.8-.8,0,.5-.3.8-.8.8Z"/><path class="cls-102" d="m327.6,634.5h-.4s-.4,0-.4,0c.2-.6.5-.5.7,0Z"/><path class="cls-258" d="m129,430.6c-.1-.1-.3-.2-.4-.4,0,0,.2,0,.3,0,0,0,0,.2.1.4h0Z"/><path class="cls-107" d="m133.2,368.1c0-.5.3-.8.9-.8-.1.5-.4.7-.9.8Z"/><path class="cls-8" d="m295.3,635.6c0,.4-.1.7-.6.4,0-.4.2-.5.6-.4Z"/><path class="cls-182" d="m156.7,430.7c-.3-.1-.8-.3-.4-.7.3-.3.6,0,.7.4l-.3.3Z"/><path class="cls-107" d="m135,365.6c0-.6.3-.8.8-.7,0,.4-.4.7-.8.7Z"/><path class="cls-57" d="m115.4,431.5c.2-.2.5-.4.7-.6-.2.2-.5.4-.7.6Z"/><path class="cls-183" d="m282.8,646.3c0,.4-.3.7-.8.8,0-.5.3-.8.8-.8Z"/><polygon class="cls-275" points="382.2 458.9 382.2 459.2 381.9 459.1 382 458.8 382.2 458.9"/><path class="cls-143" d="m244.3,523.7c-.3-.1-.7-.1-1-.4-.2-.2,0-.4.4-.4.2.3.4.5.5.8Z"/><path class="cls-161" d="m139.2,430.5c.3.2.6.4.8.6,0,.3-.2.4-.5.5-.2-.3-.5-.5-.7-.8.1-.1.2-.2.3-.3Z"/><path class="cls-182" d="m157.7,431.5c-.5,0-.8-.3-1-.7l.3-.3c.5.2.8.5.7,1h0Z"/><path class="cls-48" d="m277.6,652.2c-.3.3-.5.6-.8.9.3-.3.5-.6.8-.9Z"/><path class="cls-194" d="m95.2,506.8c-.4-.1-.7-.3-.7-.8.4,0,.7.3.7.8Z"/><path class="cls-185" d="m529.4,505.8c.3-.3.5-.5.9-.1-.3,0-.6,0-.9.1Z"/><path class="cls-205" d="m63.9,356.2l-.6-.3c.6-.5.5,0,.6.3h0Z"/><path class="cls-255" d="m241.3,657.3c-.3.3-.6.6-.8.9.1-.4.3-.9.8-.9Z"/><path class="cls-202" d="m89.2,504c0,.5-.2.9-.7,1.2.2-.4.5-.8.7-1.2Z"/><path class="cls-77" d="m220.2,497.5c.5,0,.8.2.9.7-.5,0-.7-.3-.9-.7Z"/><path class="cls-158" d="m178.8,456c0,.5-.4.7-.8.8,0-.2-.1-.5-.1-.7l.2-.2c.2,0,.5,0,.7.1Z"/><path class="cls-291" d="m33.8,327.6c.4,0,.4.4.3.7-.3-.1-.5-.3-.3-.7Z"/><path class="cls-77" d="m223.5,495.8c-.5-.2-.7-.5-.7-1,.4.2.7.5.7,1Z"/><path class="cls-203" d="m538,494c.2-.3.5-.6.7-.9,0,.3,0,.6.1.9-.3,0-.5,0-.8,0Z"/><path class="cls-13" d="m314.2,674.5c.4.2.6.5.4.9-.2.5-.5,1-1.1.7-.2,0-.2-.7-.2-1,0-.4.4-.7.8-.6Z"/><path class="cls-8" d="m272,661.6c0-.5.2-.7.6-.9-.2.3-.4.6-.6.9Z"/><path class="cls-8" d="m270.4,664.1c.2-.3.4-.5.6-.8-.2.3-.4.5-.6.8Z"/><path class="cls-12" d="m267.8,669.2c0-.5.2-.7.6-.9l-.6.9Z"/><path class="cls-12" d="m266.9,671.7c0-.5.1-.8.6-1.1,0,.5-.1.8-.6,1.1Z"/><path class="cls-286" d="m368.2,669.9c2.8,5.1,3.7,10.7,4.7,16.3-.7,1.1-1.6,1.9-3.1,1.6-.2-.4-.1-.7.2-1,.3-.2.6-.4.9-.8.2-.3.2-.7.3-1.1-.3.4-.1,1-.6,1.3-.3.4-1.3.5-.8,1.5-1.7.8-3.4-.8-5.1,0-1.6.8-3.4,1.1-5.1,1.8-.9.3-1.9.5-2.1-.5-.5-2.5-2.4-3.7-3.9-5.3-2.3-2.6-3.3-5.5-2.3-8.8.9-2.9.8-5.8.8-8.8,0-1.3,0-2.6,1-3.5.9-.8,1.6-2.1,3.1-1.8,1.6.3,1.7,1.6,1.9,2.9.2,1.2.6,2.5,1.2,3.6.7,1.2,1.8,2.4,3.4,1.6,2.1-1,3.7-.6,4.9,1.4,0,0,.3,0,.4,0,.1,0,.2-.2.2-.3Z"/><path class="cls-286" d="m367.3,667.4c.2.3.4.6.5.9-.2-.3-.4-.6-.5-.9Z"/><path class="cls-14" d="m339.4,640.4c-.3-.2-.5-.3-.8-.5.3.2.5.3.8.5Z"/><path class="cls-14" d="m341.2,641.2c-.4,0-.8-.2-1-.6.5,0,.7.2,1,.6Z"/><path class="cls-177" d="m307.1,637.7c-.3-.7-1-.5-1.6-.8.5-.2,1-.6,1.4-.6,1.7,0,4.7-.7,4.6.7-.1,1.8-2.9.7-4.5.8Z"/><path class="cls-14" d="m336,639c.4,0,.7.2.9.6-.3-.2-.6-.4-.9-.6Z"/><path class="cls-61" d="m260.3,621.7c-.4,0-.8,0-1.2,0-2-.5-3-3-5.6-2.5-1,.2-1.4-.9-1.3-1.8.2-6.2-1.7-12.3-.8-18.5.1-.7.2-1.4.4-2,.6.7.4,1.5.4,2.3,0,4.2.3,8.4,1.3,12.5,1,4.2,3.9,7.1,6.8,9.9Z"/><path class="cls-240" d="m257.5,586.1c.7-.8,1.2-.4,1.5.3-.6.2-1.1,0-1.5-.3Z"/><path class="cls-284" d="m204.2,483.1c-1.8,0-2.6-1.2-3.4-2.5h0c1.7,0,2.5,1.3,3.3,2.5h0Z"/><path class="cls-277" d="m188,473.1l1,.6c0,.5-.3.8-.8.9-.7-.5-1.4-.9-1.7-1.7.5,0,1.1.1,1.6.2Z"/><path class="cls-284" d="m196.5,466.2c.5,0,.8.4.8.8h0c-.3-.3-.6-.6-.8-.9h0Z"/><path class="cls-284" d="m197.4,467c.1.1.3.3.4.4,0,0-.2,0-.3,0,0-.1-.1-.2-.2-.4h0Z"/><path class="cls-284" d="m204.1,483.1c.1.1.3.3.4.4,0,0-.2,0-.3,0,0,0,0-.2-.1-.4h0Z"/><path class="cls-20" d="m289.7,586.1c-.2-1.1-.7-2-1.8-2.3-.2-1.8-1.1-3.2-2.4-4.3-1.3-3.6-2.5-7.2-6.8-8.3,0-.3,0-.7-.1-1,.1-.5.5-.7.9-.7,2.1,1.5,3.9,3.4,5.7,5.3.7,2,2.4,3.3,3.6,4.9,1,1.3,2.3,2.3,3.9,2.8,1.3,1,2.6,2,3.9,3-2,.2-4.2.1-4.6,2.9-.8-.7-1.5-1.5-2.3-2.2Z"/><path class="cls-141" d="m268.4,566.8c.5.3.9.6,1.4.9,1.1.5,2.1,1.1,3.2,1.6-1.2.3-2.5-.2-3.6.6-1.1.8-2.1-.2-3.2-.5-1.7-.5-3.5-1.8-5.1-1.6-3.2.4-3.6-2.4-5.1-3.8-.5-.5-.8-1.5-.1-2.3,1.2-1.2.5-2.6.5-4-.3-.8.2-1.1.8-1.3,1.1.3,1.8,1.2,1.7,2.1-.5,5,2.8,6.4,6.6,7.6.9.3,1.6,1.2,2.7.8h.2Z"/><path class="cls-106" d="m247.2,554.1c-.5,0-.7-.4-.8-.7.7-2.1,3.8-1.8,4.2-4.1,0-1.3.5-2,1.9-1.9.1.1.3.2.4.3.3.4.5.9.7,1.4,0,.2,0,.3,0,.5,0,.4,0,.7,0,1-.2,1.1,0,2.1,0,3.2-.1.6-.6.9-1.2,1.1-1.7-.7-3.4-.9-5.2-.7Z"/><path class="cls-50" d="m252.4,554.8c0-.5.4-.6.8-.8,1-1.4-1-2.6-.2-4,0-.4.1-.8.2-1.1,3.3,1.5,3.9,4.5,4.1,7.7-.5.1-.8.5-.9,1-1.1-1.3-2.6-2-4-2.9Z"/><path class="cls-284" d="m123.9,428.1c-.1-.1-.3-.3-.4-.4,0,0,.2,0,.3,0,0,0,.1.2.2.4h0Z"/><path class="cls-67" d="m282.8,564.3c-.6,0-1.2,0-1.8.1h0c-.1-.5-.1-.8,0-1.2,2.5-2.4,1.1-5.2.9-7.9-.4-.5-.3-1,.2-1.4.6.7,2.3.7,2.1,1.6-.6,2,1.5,3.8.2,5.8-.6.9-1,1.9-1.4,2.9Z"/><path class="cls-55" d="m274.3,557.5c.4,1.5-.7,3.4-1.8,3.2-.5-.1-.5-.5-.2-.8.6-.9,1.8-1.2,2.1-2.4h0Z"/><path class="cls-68" d="m282,554c0,.5-.1.9-.2,1.4-.5-.3-1.5-.1-1.4-1.2.9-.3.4-1.6,1.5-1.7v1.5Z"/><path class="cls-130" d="m275.9,562.6c-.9,0-1-.6-.9-1.1,0-.3.2-.8.8-.6.6.2.9.6.8,1.2,0,.4-.4.6-.7.6Z"/><path class="cls-105" d="m280.9,563.3c0,.3,0,.7,0,1-.8-.4-.5-.7,0-1Z"/><path class="cls-2" d="m257.3,556.7c-1.8-2.3-2.1-5.5-4.1-7.7h0c-.6-.4-.4-1.2-.9-1.7h0c-1.1-5-1.1-5,4.2-4.3,1.1.1,2.2.1,3.3.2.2,3.9.3,7.7-.8,11.5-.5,1.8-.8,3.7,2.5,2.3,2.2-.9,3,1.9,4.3,3.1.2,1.5,2.2,1.2,2.5,2.6-1,1.4-2.9,2.7-.2,4.2,0,.5,0,1.6-.3,1.3-2.6-1.8-6.1-1.3-8.4-3.9-1-1.2-1.9-1.8-1.2-3.7.5-1.2-.2-2.7-1-3.9Z"/><path class="cls-11" d="m250.5,542.3c-1.6-1.6-.9-4.1-2.1-5.8-.2-1.2-.3-2.3-.5-3.5-.2-.3-.1-.6.2-.9.4.2.8.3,1.1.5,5.4,3.5,5.6,4.4,1.3,9.7Z"/><path class="cls-279" d="m259.9,534.7c.7,2.3-1,3.9-1.6,5.9-.7.2-1.3.5-2,.6-1.3.2-1.9-.6-1.2-1.7.8-1.3,1.6-2.6,1.5-4.2-.1-1.7.1-2.4,1.7-.9.4.3,1,.2,1.6.4Z"/><path class="cls-19" d="m250.6,549.3c.2,1.4,1.2,3.2-1.6,3.1-1.1,0-1.8.6-2.7,1l-.7-.6c0-.4,0-.8-.1-1.2,0,0,0,0,0,0,.3-.2.6-.4.7-.8.6-.9.3-3.4,2.6-1.6.3.3.7.3,1.1.1.2,0,.4,0,.6,0Z"/><path class="cls-289" d="m253.4,532.7c.4.1.8.2,1.1.4.4.3,1,.7.7,1.2-.4.6-.9-.1-1.3-.4-.3-.2-.6-.5-.9-.7.2-.2.3-.3.4-.5Z"/><path class="cls-160" d="m248.1,532.1c0,.3-.1.6-.2.9-.6-.3-.7-.8-.3-1.2.2-.2.5,0,.5.3Z"/><path class="cls-89" d="m246.2,550.7c0,.5-.3.7-.7.8.2-.3.5-.5.7-.8Z"/><path class="cls-106" d="m250,549.3c-.4.6-.8.5-1.1-.1.4,0,.7,0,1.1.1Z"/><path class="cls-17" d="m239.7,560.9c-.4,2.3,0,4.5.9,6.7h-.2c-2.1-1.9-2.4-4.2-.8-6.7h0Z"/><path class="cls-10" d="m239.6,560.9c-.2-1.5.4-2.7,1.5-3.5,1.5-1.1.5.9,1.1,1h0c-1.7,0-1.3,2.1-2.5,2.5h0Z"/><path class="cls-278" d="m240.6,567.6c1,.4,1.5,1.2,2,2,0,0-.4.4-.5.3-.9-.4-1.5-1.2-1.7-2.2h.2Z"/><path class="cls-246" d="m194,386.6c1.1-3.4,3.6-4.4,6.8-4.2-.1.7-1.4.7-1,1.4.2.4,1.3.3,1.9.4-.6,1.1-2.7.2-2.7,2.1,0,.8-.4.7-.9.1-1.4-1.4-2.8-.3-4.1.2Z"/><path class="cls-280" d="m206.7,379.9c-.6,0-1.1,0-1.7,0-1.2,0-2.5,0-3-1.4,1.4,0,2.4-2.2,4-.5.2.6.5,1.3.7,1.9Z"/><path class="cls-284" d="m209.9,475.5c0-.3,0-.6.1-.9.7.2.9.7.6,1.2-.3.6-.6,0-.8-.2Z"/><path class="cls-281" d="m162.7,370.6c1.2-2,2.2-.3,3.3.2-1.3,2.4-2.2.2-3.3-.2Z"/><path class="cls-273" d="m174.6,620.9c-.1,1.3.4,2.4.7,3.7.4,1.8-.2,3.3-1.3,4.6-.9,1.1-2.3,2.4-3.4,1.8-1.4-.8.3-2.1.7-3,1.1-2.3,1.5-5,3.4-7h0Z"/><path class="cls-290" d="m60.5,384.1c0-.6,0-1.1,0-1.7.3-.2.6-.5.9-.7.2,0,.6.1.7.3.7.6,2.4.9,1.8,1.8-.6,1-2.2,1.2-3.4.2Z"/><path class="cls-77" d="m222.7,497.5c.1.1.3.3.4.4,0,0-.2,0-.3,0,0-.1,0-.2-.1-.4h0Z"/><path class="cls-77" d="m222,496.6c.4.1.7.5.8.9h0c-.5,0-.8-.4-.9-.8h.1Z"/><path class="cls-284" d="m193.1,388.4c0-.7.1-1.3.8-1.7-.2.6-.2,1.3-.8,1.7Z"/><path class="cls-284" d="m192.2,389.2c.2-.4.3-1,1-.9-.2.5-.3.9-1,.9Z"/><path class="cls-284" d="m86.5,361.5c.4.8.7,1.5,1.1,2.3-1.7,0-3.1-.6-3.5-2.6.8,0,1.6.2,2.4.3Z"/><path class="cls-284" d="m80.8,363.8c-.1.2-.3.4-.4.6-.3-.6.1-.5.5-.5h0Z"/><path class="cls-284" d="m80.9,363.9c0-.2.1-.5.2-.7.7.5-.1.4-.2.6h0Z"/><path class="cls-284" d="m146.7,424.7c-.3.3-.6.6-.9.9.3-.3.6-.6.9-.9Z"/><path class="cls-284" d="m55.3,373.3c0,.2,0,.5.1.7-.5-.3-1.7.3-1.6-.7.2-1.2.9-.1,1.4,0Z"/><path class="cls-284" d="m272.9,634.6c.1,0,.5.3.5.3-.1.4-.3.7-.5,1.1-.2-.1-.5-.2-.5-.4,0-.4-.1-.8.4-1Z"/><path class="cls-284" d="m88.3,357c-.1.2-.2.4-.3.5,0,0,0-.2,0-.3,0,0,.2-.1.4-.2,0,0,0,0,0,0Z"/><path class="cls-284" d="m88.4,357c.1-.1.3-.2.4-.4,0,0,0,.2-.1.2,0,0-.2,0-.3,0,0,0,0,0,0,0Z"/><path class="cls-22" d="m292.8,442.4c-.8.5-2,1.1-.8,2.1,2.4,1.9.1,2.2-.9,3-2.7.2-5-.4-5.9-1.6.3-.3.7-.7,1-.7,1.7,0-2-4.6,2.1-2.4,1.6.9,2.9-2.1,4.5-.3Z"/><path class="cls-117" d="m264.2,537.2c-1.3.3-1.8-.4-1.6-1.6,1.1,0,1.8.4,1.6,1.6Z"/><path class="cls-60" d="m369.8,687c-.1-.8,1.2-1.3.3-2.2-.5-.5-2-.6-.6-1.5.8-.5,1.6.3,1.9,1.1.4,1.3.9,2.9-1.6,2.6h0Z"/><path class="cls-119" d="m369.8,687.8c-.4,0-.7-.2-.6-.6,0-.1.4-.2.6-.2,0,0,0,0,0,0,0,.3,0,.6,0,.8,0,0,0,0,0,0Z"/><path class="cls-157" d="m253,550.1c.2,1.3,1.3,2.4,1.5,3.6.3,1.8-.9.2-1.4.4-.9-1.3-1.7-2.6-.2-4Z"/><path class="cls-50" d="m252.4,547.3c.9.3.9,1,.9,1.7-1-.2-.8-1-.9-1.7Z"/><rect class="cls-1" x=".4" y="274.1" width="649.1" height="417.9"/><rect class="cls-1" x=".4" y="274.1" width="595" height="417.9"/><text class="cls-295" transform="translate(214.6 173.5)"><tspan x="0" y="0">Antoine de</tspan><tspan x="-28.5" y="43.2" xml:space="preserve">Saint-Exupry  </tspan></text><text class="cls-296" transform="translate(155.4 301.3)"><tspan x="0" y="0">Mali princ </tspan></text><rect class="cls-276" x="247.6" y="711.5" width="99.2" height="54"/><rect class="cls-276" x="247.6" y="711.5" width="99.2" height="54"/><rect class="cls-1" width="595.4" height="842"/></svg>